/* XPM */
static char * little_plank_r6_xpm[] = {
"11 96 512 2",
"  	c #FFFFFE",
". 	c #B49C8E",
"+ 	c #9A6C48",
"@ 	c #996840",
"# 	c #986841",
"$ 	c #8E603B",
"% 	c #7D522E",
"& 	c #764B26",
"* 	c #785132",
"= 	c #A29289",
"- 	c #976946",
"; 	c #A36F46",
"> 	c #A47045",
", 	c #A46F45",
"' 	c #9E6B42",
") 	c #8C5D37",
"! 	c #7E512B",
"~ 	c #7D5129",
"{ 	c #764F31",
"] 	c #96663F",
"^ 	c #A57046",
"/ 	c #A36E44",
"( 	c #95643D",
"_ 	c #83562F",
": 	c #734924",
"< 	c #966640",
"[ 	c #A67146",
"} 	c #8C5D36",
"| 	c #7E512A",
"1 	c #734925",
"2 	c #94653E",
"3 	c #A47046",
"4 	c #82552F",
"5 	c #734A25",
"6 	c #8C5F3A",
"7 	c #A36F45",
"8 	c #A26F45",
"9 	c #A26E45",
"0 	c #8B5D36",
"a 	c #734B27",
"b 	c #825733",
"c 	c #9D6C42",
"d 	c #96653D",
"e 	c #7A502D",
"f 	c #7A512D",
"g 	c #96663E",
"h 	c #A57146",
"i 	c #A57045",
"j 	c #A06C43",
"k 	c #875B36",
"l 	c #774E2A",
"m 	c #8F6139",
"n 	c #A16F44",
"o 	c #A67246",
"p 	c #A36E45",
"q 	c #91623D",
"r 	c #784E2A",
"s 	c #895C34",
"t 	c #9B6A41",
"u 	c #A67247",
"v 	c #95653F",
"w 	c #7A4F2A",
"x 	c #855830",
"y 	c #95663D",
"z 	c #A47146",
"A 	c #A37046",
"B 	c #95653E",
"C 	c #7B502B",
"D 	c #85572F",
"E 	c #906139",
"F 	c #A06E44",
"G 	c #A06F45",
"H 	c #A06D44",
"I 	c #A46E45",
"J 	c #7B512B",
"K 	c #86582F",
"L 	c #A27045",
"M 	c #9F6D44",
"N 	c #A26E44",
"O 	c #7C522C",
"P 	c #875930",
"Q 	c #885B32",
"R 	c #97673E",
"S 	c #9F6C43",
"T 	c #7D532D",
"U 	c #885A31",
"V 	c #93643B",
"W 	c #9E6B43",
"X 	c #7E532D",
"Y 	c #895B31",
"Z 	c #9E6D43",
"` 	c #7F542E",
" .	c #8A5B32",
"..	c #8A5B31",
"+.	c #8D5F36",
"@.	c #9F6D43",
"#.	c #80552F",
"$.	c #8B5C33",
"%.	c #8B5B32",
"&.	c #8B5D34",
"*.	c #99683F",
"=.	c #A16D44",
"-.	c #815630",
";.	c #8C5D34",
">.	c #8C5C32",
",.	c #895B33",
"'.	c #8D5E34",
").	c #8C5D33",
"!.	c #96663D",
"~.	c #825731",
"{.	c #8D5F35",
"].	c #95653C",
"^.	c #835831",
"/.	c #8E6036",
"(.	c #8E5F35",
"_.	c #8A5C33",
":.	c #845932",
"<.	c #8F6136",
"[.	c #8E6035",
"}.	c #8B5D33",
"|.	c #906137",
"1.	c #96673D",
"2.	c #A47147",
"3.	c #855A33",
"4.	c #906237",
"5.	c #906136",
"6.	c #8C5F35",
"7.	c #98693F",
"8.	c #A67347",
"9.	c #855B33",
"0.	c #916338",
"a.	c #916237",
"b.	c #8F6238",
"c.	c #9C6D42",
"d.	c #A87549",
"e.	c #865B34",
"f.	c #926339",
"g.	c #94663B",
"h.	c #A17145",
"i.	c #A9764A",
"j.	c #A77347",
"k.	c #865B35",
"l.	c #926439",
"m.	c #986A40",
"n.	c #A67549",
"o.	c #AB774B",
"p.	c #A87448",
"q.	c #875C36",
"r.	c #93643A",
"s.	c #92643A",
"t.	c #9E6F44",
"u.	c #AC7A4C",
"v.	c #AC784B",
"w.	c #A97449",
"x.	c #A67046",
"y.	c #95643E",
"z.	c #885D36",
"A.	c #94653B",
"B.	c #97683E",
"C.	c #A57548",
"D.	c #AF7C4E",
"E.	c #AD794C",
"F.	c #AA7549",
"G.	c #A67147",
"H.	c #91623C",
"I.	c #885D37",
"J.	c #94663C",
"K.	c #9C6E43",
"L.	c #AB7A4D",
"M.	c #B17E50",
"N.	c #AE7A4D",
"O.	c #AB764A",
"P.	c #8B5E39",
"Q.	c #895E37",
"R.	c #A37448",
"S.	c #B17F51",
"T.	c #B27F50",
"U.	c #AF7B4E",
"V.	c #AB764B",
"W.	c #865A36",
"X.	c #8A5F38",
"Y.	c #9B6D42",
"Z.	c #AA7B4D",
"`.	c #B48253",
" +	c #B38051",
".+	c #B07C4E",
"++	c #AC774B",
"@+	c #9F6C44",
"#+	c #825633",
"$+	c #A17347",
"%+	c #B18153",
"&+	c #B68454",
"*+	c #B38152",
"=+	c #B07D4F",
"-+	c #AC784C",
";+	c #9C6A42",
">+	c #7D5330",
",+	c #8C633B",
"'+	c #A87A4D",
")+	c #B68656",
"!+	c #B78555",
"~+	c #B48252",
"{+	c #B17D50",
"]+	c #AD784C",
"^+	c #9A6840",
"/+	c #79502D",
"(+	c #936A42",
"_+	c #B08152",
":+	c #B98858",
"<+	c #B88656",
"[+	c #B58353",
"}+	c #B27E50",
"|+	c #774E2B",
"1+	c #9D7349",
"2+	c #B78757",
"3+	c #BA8958",
"4+	c #B88756",
"5+	c #B68354",
"6+	c #B27F51",
"7+	c #AA774B",
"8+	c #94643C",
"9+	c #A77B4F",
"0+	c #BB8A59",
"a+	c #B98857",
"b+	c #B37F51",
"c+	c #A77549",
"d+	c #91623A",
"e+	c #794E2A",
"f+	c #AC7F52",
"g+	c #BC8C5A",
"h+	c #BB8B5A",
"i+	c #A47348",
"j+	c #8E5F38",
"k+	c #794E2B",
"l+	c #AD8053",
"m+	c #BC8C5B",
"n+	c #B48052",
"o+	c #A27147",
"p+	c #794F2B",
"q+	c #AD8154",
"r+	c #BD8D5C",
"s+	c #BD8D5B",
"t+	c #B48152",
"u+	c #A07045",
"v+	c #885B34",
"w+	c #AE8154",
"x+	c #BE8E5C",
"y+	c #BB8B59",
"z+	c #B98656",
"A+	c #9E6E43",
"B+	c #865932",
"C+	c #AE8255",
"D+	c #BE8E5D",
"E+	c #BC8B5A",
"F+	c #B98757",
"G+	c #B28051",
"H+	c #9B6C42",
"I+	c #865931",
"J+	c #794F2A",
"K+	c #AF8255",
"L+	c #BF8F5D",
"M+	c #BE8F5D",
"N+	c #AF7E50",
"O+	c #996A40",
"P+	c #875932",
"Q+	c #AF8355",
"R+	c #BF8F5E",
"S+	c #BD8C5B",
"T+	c #AD7D4F",
"U+	c #96693F",
"V+	c #875A32",
"W+	c #B08356",
"X+	c #C0905E",
"Y+	c #C08F5E",
"Z+	c #BA8857",
"`+	c #AB7B4E",
" @	c #94673D",
".@	c #79502B",
"+@	c #B08456",
"@@	c #C0905F",
"#@	c #BE8D5C",
"$@	c #BA8858",
"%@	c #A9794D",
"&@	c #92643B",
"*@	c #885A32",
"=@	c #7A502B",
"-@	c #B18457",
";@	c #C1915F",
">@	c #A7784C",
",@	c #90623A",
"'@	c #C19160",
")@	c #C0915F",
"!@	c #A5774A",
"~@	c #8E6038",
"{@	c #C19260",
"]@	c #A37549",
"^@	c #B18558",
"/@	c #C19261",
"(@	c #B88757",
"_@	c #A27347",
":@	c #A07246",
"<@	c #B28558",
"[@	c #C29361",
"}@	c #B48555",
"|@	c #9E7044",
"1@	c #B28658",
"2@	c #C19360",
"3@	c #B28354",
"4@	c #9C6F43",
"5@	c #C29461",
"6@	c #B08253",
"7@	c #9A6D42",
"8@	c #AF8152",
"9@	c #996C41",
"0@	c #AE7F51",
"a@	c #976A3F",
"b@	c #AD7F50",
"c@	c #96693E",
"d@	c #8E5F36",
"e@	c #B18658",
"f@	c #C19361",
"g@	c #AC7D4F",
"h@	c #95673D",
"i@	c #BE8F5C",
"j@	c #AA7C4E",
"k@	c #93653C",
"l@	c #C19461",
"m@	c #BD8F5C",
"n@	c #A97C4D",
"o@	c #93653B",
"p@	c #8E5E35",
"q@	c #BD8E5C",
"r@	c #A87B4D",
"s@	c #92653A",
"t@	c #B08557",
"u@	c #BC8E5B",
"v@	c #BC8D5B",
"w@	c #A87A4C",
"x@	c #8D5E35",
"y@	c #AF8456",
"z@	c #C09260",
"A@	c #875A31",
"B@	c #BF925F",
"C@	c #A77A4C",
"D@	c #91633A",
"E@	c #875931",
"F@	c #784F2A",
"G@	c #AE8355",
"H@	c #BF905F",
"I@	c #BF905E",
"J@	c #BB8C5A",
"K@	c #A7794C",
"L@	c #BE905E",
"M@	c #BF905D",
"N@	c #A7794B",
"O@	c #916339",
"P@	c #AD8254",
"Q@	c #BE905D",
"R@	c #BA8B59",
"S@	c #A8794C",
"T@	c #865930",
"U@	c #BD8E5D",
"V@	c #B98A59",
"W@	c #93663B",
"X@	c #865830",
"Y@	c #AC8153",
"Z@	c #B98A58",
"`@	c #AB8053",
" #	c #B88958",
".#	c #AB7D4E",
"+#	c #97693E",
"@#	c #AB7F52",
"##	c #B88857",
"$#	c #AC7E4F",
"%#	c #986A3F",
"&#	c #85582F",
"*#	c #774E29",
"=#	c #AA7E51",
"-#	c #B78756",
";#	c #AE7F50",
">#	c #8A5B33",
",#	c #764D29",
"'#	c #B68655",
")#	c #AF7F51",
"!#	c #895B32",
"~#	c #A97D50",
"{#	c #B88957",
"]#	c #B58655",
"^#	c #B08051",
"/#	c #9C6E42",
"(#	c #84562F",
"_#	c #764C29",
":#	c #A87C4F",
"<#	c #B78857",
"[#	c #B38353",
"}#	c #AF7E4F",
"|#	c #9F7044",
"1#	c #8A5C34",
"2#	c #83562E",
"3#	c #764C28",
"4#	c #A77B4E",
"5#	c #B48655",
"6#	c #B48554",
"7#	c #AF8051",
"8#	c #AC7C4E",
"9#	c #A17246",
"0#	c #8D5F37",
"a#	c #83552E",
"b#	c #754C28",
"c#	c #A67A4D",
"d#	c #B18352",
"e#	c #B08251",
"f#	c #AF8050",
"g#	c #A37348",
"h#	c #754B27",
"i#	c #A5794C",
"j#	c #AF8151",
"k#	c #B18151",
"l#	c #AE7D4E",
"m#	c #A67649",
"n#	c #81542D",
"o#	c #744B27",
"p#	c #A07549",
"q#	c #AD7F4F",
"r#	c #AE7F4F",
"s#	c #B18150",
"t#	c #A8774A",
"u#	c #81542E",
"v#	c #936A40",
"w#	c #AF7F4F",
"x#	c #B0804F",
"y#	c #AD7C4D",
"z#	c #A9774A",
"A#	c #744A26",
"B#	c #895F37",
"C#	c #9F7245",
"D#	c #AC7D4D",
"E#	c #AF7F4E",
"F#	c #AC7C4C",
"G#	c #9B6B41",
"H#	c #875C34",
"I#	c #96683D",
"J#	c #A27447",
"K#	c #AC7C4D",
"L#	c #AC7B4C",
"M#	c #AA774A",
"N#	c #895C35",
"O#	c #734A26",
"P#	c #875B33",
"Q#	c #936439",
"R#	c #996B3F",
"S#	c #A67749",
"T#	c #AB7A4C",
"U#	c #A37146",
"V#	c #724A26",
"W#	c #865B33",
"X#	c #936338",
"Y#	c #9D6E42",
"Z#	c #A9784A",
"`#	c #92633B",
" $	c #744B29",
".$	c #865A32",
"+$	c #926237",
"@$	c #916136",
"#$	c #95663B",
"$$	c #A27246",
"%$	c #A97649",
"&$	c #97663E",
"*$	c #794F2D",
"=$	c #855931",
"-$	c #916135",
";$	c #8F6036",
">$	c #9A6B40",
",$	c #A77548",
"'$	c #7E5431",
")$	c #845931",
"!$	c #906135",
"~$	c #906034",
"{$	c #8D5E33",
"]$	c #A06D43",
"^$	c #835835",
"/$	c #835830",
"($	c #8F6033",
"_$	c #8D5D32",
":$	c #9C6B41",
"<$	c #8A5D39",
"[$	c #82572F",
"}$	c #8F5F34",
"|$	c #8E5F33",
"1$	c #8C5C31",
"2$	c #98683E",
"3$	c #A57246",
"4$	c #90613C",
"5$	c #82562F",
"6$	c #8E5E33",
"7$	c #8D5E32",
"8$	c #8B5B30",
"9$	c #87582F",
"0$	c #94643E",
"a$	c #80552E",
"b$	c #8C5D32",
"c$	c #895A2F",
"d$	c #85582E",
"e$	c #A37045",
"f$	c #764E29",
"g$	c #81552D",
"h$	c #81552C",
"i$	c #7F532B",
"j$	c #8C5F39",
"k$	c #996841",
"l$	c #986740",
"m$	c #895D39",
"                      ",
"  . + @ # $ % & * =   ",
"  - ; > , ' ) ! ~ {   ",
"  ] ^ ^ ^ / ( _ ~ :   ",
"  < ^ [ ^ , ' } | 1   ",
"  2 ^ ^ 3 ^ / ( 4 5   ",
"  6 7 8 9 3 , ' 0 a   ",
"  b c 8 8 3 , / d e   ",
"  f g 3 h i , , j k   ",
"  l m n o ^ , , p q   ",
"  r s t u h 3 , p v   ",
"  w x y z A 9 , p B   ",
"  C D E F G H , I B   ",
"  J K } t L M N p B   ",
"  O P Q R z S S p B   ",
"  T U P V L M W p B   ",
"  X Y U E Z M W p B   ",
"  `  ...+.t @.S p B   ",
"  #.$.%.&.*.n =.p B   ",
"  -.;.>.,.R > , I B   ",
"  -.'.).,.!.3 ^ p B   ",
"  ~.{.'.,.].> ^ p B   ",
"  ^./.(._.].> ^ p B   ",
"  :.<.[.}.].A ^ p B   ",
"  :.|.<.&.1.2.h p B   ",
"  3.4.5.6.7.8.h p B   ",
"  9.0.a.b.c.d.o I B   ",
"  e.f.0.g.h.i.j., B   ",
"  k.l.0.m.n.o.p.i B   ",
"  q.r.s.t.u.v.w.x.y.  ",
"  z.A.B.C.D.E.F.G.H.  ",
"  I.J.K.L.M.N.O.G.P.  ",
"  Q.1.R.S.T.U.V.7 W.  ",
"  X.Y.Z.`. +.+++@+#+  ",
"  X.$+%+&+*+=+-+;+>+  ",
"  ,+'+)+!+~+{+]+^+/+  ",
"  (+_+:+<+[+}+-+g |+  ",
"  1+2+3+4+5+6+7+8+l   ",
"  9+0+0+a+&+b+c+d+e+  ",
"  f+g+h+:+!+ +i+j+k+  ",
"  l+m+m+3+!+n+o+0 p+  ",
"  q+r+s+0+<+t+u+v+k+  ",
"  w+x+r+y+z+*+A+B+k+  ",
"  C+D+x+E+F+G+H+I+J+  ",
"  K+L+M+m+a+N+O+P+p+  ",
"  Q+R+L+S+a+T+U+V+p+  ",
"  W+X+Y+s+Z+`+ @V+.@  ",
"  +@@@X+#@$@%@&@*@=@  ",
"  -@;@X+#@3+>@,@*@=@  ",
"  -@'@)@x+3+!@~@*@=@  ",
"  -@{@;@D+:+]@+.*@=@  ",
"  ^@/@{@D+(@_@+.*@=@  ",
"  ^@/@{@D+)+:@+.*@=@  ",
"  <@[@{@M+}@|@/.*@=@  ",
"  1@[@2@M+3@4@/.*@=@  ",
"  1@5@2@M+6@7@/.*@=@  ",
"  1@5@[@M+8@9@/.*@=@  ",
"  1@5@[@D+0@a@/.*@=@  ",
"  1@5@[@D+b@c@d@*@=@  ",
"  e@5@f@D+g@h@+.*@=@  ",
"  e@5@f@i@j@k@+.*@=@  ",
"  ^@l@f@m@n@o@p@*@p+  ",
"  ^@f@2@q@r@s@p@*@p+  ",
"  t@f@{@u@r@&@p@*@p+  ",
"  t@2@{@v@w@s.x@U J+  ",
"  y@z@;@v@w@s.x@A@J+  ",
"  y@B@)@g+C@D@'.E@F@  ",
"  G@H@I@J@K@D@'.E@F@  ",
"  G@L@M@J@N@O@;.P F@  ",
"  P@Q@M+R@S@s.;.T@r   ",
"  q+U@q@V@w@W@&.X@r   ",
"  Y@q@u@Z@Z.h@;.X@l   ",
"  `@v@v@ #.#+#}.X@l   ",
"  @#J@J@##$#%#_.&#*#  ",
"  =#R@R@-#;#9@>#D ,#  ",
"  =#Z@Z@'#)#Y.!#D ,#  ",
"  ~# #{#]#^#/#!#(#_#  ",
"  :#<#<#[#}#|#1#2#3#  ",
"  4#5#6#7#8#9#0#a#b#  ",
"  c#d#e#f#8#g#E a#h#  ",
"  i#j#f#k#l#m#V n#o#  ",
"  p#q#r#s#l#t#y u#o#  ",
"  v#w@w#x#y#z#7._ A#  ",
"  B#C#D#E#F#z#G#B+A#  ",
"  H#I#J#K#L#M#A+N#O#  ",
"  P#Q#R#S#T#M#U#j+V#  ",
"  W#X#Q#Y#Z#M#8.`# $  ",
"  .$+$@$#$$$%$j.&$*$  ",
"  =$@$-$;$>$,$8.t '$  ",
"  )$!$~${$A.L 8.]$^$  ",
"  /$~$($_$d@:$u 7 <$  ",
"  [$}$|$1$ .2$3$7 4$  ",
"  5$6$7$8$9$A.z , 0$  ",
"  a$b$1$c$d$V e$7 y.  ",
"  f$g$h$i$X j$k$l$m$  ",
"                      "};
