/* XPM */
static char * little_plank_r4_xpm[] = {
"95 10 540 2",
"  	c #EDECEA",
". 	c #7C6354",
"+ 	c #684221",
"@ 	c #674221",
"# 	c #694424",
"$ 	c #785130",
"% 	c #855A38",
"& 	c #865B38",
"* 	c #865A37",
"= 	c #815735",
"- 	c #734D2E",
"; 	c #6A4627",
"> 	c #6C4626",
", 	c #6B4626",
"' 	c #6B4525",
") 	c #6B4625",
"! 	c #6C4625",
"~ 	c #6D4625",
"{ 	c #6D4626",
"] 	c #6D4726",
"^ 	c #6B4524",
"/ 	c #6A4524",
"( 	c #6A4424",
"_ 	c #6A4423",
": 	c #694323",
"< 	c #694322",
"[ 	c #684322",
"} 	c #684222",
"| 	c #674323",
"1 	c #684627",
"2 	c #754F30",
"3 	c #815736",
"4 	c #6F4B2E",
"5 	c #7F6555",
"6 	c #7C522E",
"7 	c #7C5028",
"8 	c #7C5029",
"9 	c #7D512A",
"0 	c #815530",
"a 	c #93633C",
"b 	c #A06C43",
"c 	c #A16D44",
"d 	c #A26D44",
"e 	c #A26E44",
"f 	c #A36E44",
"g 	c #A36E45",
"h 	c #9F6C43",
"i 	c #97663F",
"j 	c #90613B",
"k 	c #895C37",
"l 	c #845832",
"m 	c #825630",
"n 	c #845630",
"o 	c #855630",
"p 	c #845730",
"q 	c #835630",
"r 	c #84562F",
"s 	c #855730",
"t 	c #84572F",
"u 	c #83572F",
"v 	c #83562F",
"w 	c #83562E",
"x 	c #82552E",
"y 	c #81552D",
"z 	c #81542D",
"A 	c #80532D",
"B 	c #80532C",
"C 	c #7F522B",
"D 	c #7E522B",
"E 	c #7E512B",
"F 	c #7D512B",
"G 	c #7D522D",
"H 	c #835732",
"I 	c #8C5E38",
"J 	c #95653E",
"K 	c #9D6A42",
"L 	c #A06D43",
"M 	c #8A5D39",
"N 	c #6E4723",
"O 	c #7D5029",
"P 	c #7E5129",
"Q 	c #81552F",
"R 	c #8F603A",
"S 	c #9E6B42",
"T 	c #A46F45",
"U 	c #A36F45",
"V 	c #A57046",
"W 	c #A67146",
"X 	c #A77247",
"Y 	c #A87248",
"Z 	c #A97348",
"` 	c #A97449",
" .	c #AA7449",
"..	c #A57247",
"+.	c #9F6E44",
"@.	c #996A41",
"#.	c #94663E",
"$.	c #8F623B",
"%.	c #8B5E37",
"&.	c #895C35",
"*.	c #895C34",
"=.	c #8B5D35",
"-.	c #8B5E35",
";.	c #8B5D34",
">.	c #8B5C34",
",.	c #8A5C33",
"'.	c #8A5B32",
").	c #895B32",
"!.	c #895A32",
"~.	c #885A31",
"{.	c #885931",
"].	c #875930",
"^.	c #875830",
"/.	c #865830",
"(.	c #855932",
"_.	c #8A5E36",
":.	c #90633A",
"<.	c #986840",
"[.	c #A06E43",
"}.	c #A37045",
"|.	c #A47045",
"1.	c #A57146",
"2.	c #8E603B",
"3.	c #6F4724",
"4.	c #9C6A42",
"5.	c #9A6941",
"6.	c #996941",
"7.	c #9B6A41",
"8.	c #A16E44",
"9.	c #A67247",
"0.	c #A77347",
"a.	c #A87448",
"b.	c #A97549",
"c.	c #AA764A",
"d.	c #AB774A",
"e.	c #AC774B",
"f.	c #AD784C",
"g.	c #AE794C",
"h.	c #AE7A4D",
"i.	c #AF7B4E",
"j.	c #B07B4E",
"k.	c #B07C4F",
"l.	c #B07D4F",
"m.	c #B07D50",
"n.	c #AD7B4E",
"o.	c #A9784C",
"p.	c #A47549",
"q.	c #9F7146",
"r.	c #9C6E44",
"s.	c #986A41",
"t.	c #94673E",
"u.	c #91643B",
"v.	c #8F6339",
"w.	c #906239",
"x.	c #906339",
"y.	c #926339",
"z.	c #916439",
"A.	c #916339",
"B.	c #916338",
"C.	c #916238",
"D.	c #906238",
"E.	c #906138",
"F.	c #906137",
"G.	c #8F6036",
"H.	c #8F6035",
"I.	c #8E6036",
"J.	c #8D5F35",
"K.	c #8B5E34",
"L.	c #8C5F37",
"M.	c #96683F",
"N.	c #9C6D43",
"O.	c #A27146",
"P.	c #A57447",
"Q.	c #A77448",
"R.	c #A77548",
"S.	c #A87549",
"T.	c #A87548",
"U.	c #A67347",
"V.	c #A57246",
"W.	c #A37145",
"X.	c #A16F44",
"Y.	c #A06E44",
"Z.	c #8D613C",
"`.	c #754E2D",
" +	c #9F6B42",
".+	c #A47046",
"++	c #9E6C43",
"@+	c #9C6C43",
"#+	c #A26F45",
"$+	c #A47146",
"%+	c #A37046",
"&+	c #A47145",
"*+	c #A06F45",
"=+	c #A67448",
"-+	c #A9764A",
";+	c #AA784B",
">+	c #AC794C",
",+	c #AE7B4D",
"'+	c #AF7C4E",
")+	c #B17E4F",
"!+	c #B17E50",
"~+	c #B27F51",
"{+	c #B38051",
"]+	c #B48152",
"^+	c #B58253",
"/+	c #B68353",
"(+	c #B68354",
"_+	c #B78454",
":+	c #B78455",
"<+	c #B78555",
"[+	c #B78556",
"}+	c #B68555",
"|+	c #B38254",
"1+	c #B18152",
"2+	c #AC7D4F",
"3+	c #A97B4E",
"4+	c #A5784B",
"5+	c #A3764A",
"6+	c #A07348",
"7+	c #9D7145",
"8+	c #9C6F44",
"9+	c #996C42",
"0+	c #976A40",
"a+	c #966A3F",
"b+	c #95693F",
"c+	c #95683E",
"d+	c #94683E",
"e+	c #976B40",
"f+	c #9A6D42",
"g+	c #9E7145",
"h+	c #A07347",
"i+	c #A47649",
"j+	c #A8794C",
"k+	c #AA7A4D",
"l+	c #AD7C4D",
"m+	c #AC7B4D",
"n+	c #AD7B4D",
"o+	c #AC7A4C",
"p+	c #AB7A4B",
"q+	c #AB794B",
"r+	c #AA774A",
"s+	c #A87649",
"t+	c #A27145",
"u+	c #96683E",
"v+	c #8D5F37",
"w+	c #875A32",
"x+	c #845830",
"y+	c #7A5330",
"z+	c #8C613C",
"A+	c #A37146",
"B+	c #A27045",
"C+	c #9C6B42",
"D+	c #94653D",
"E+	c #8F613A",
"F+	c #8A5D36",
"G+	c #885C34",
"H+	c #885B33",
"I+	c #885B32",
"J+	c #895B33",
"K+	c #8A5D35",
"L+	c #8D6037",
"M+	c #93663C",
"N+	c #A57549",
"O+	c #B07E50",
"P+	c #B48253",
"Q+	c #B58353",
"R+	c #B68454",
"S+	c #B88656",
"T+	c #B88757",
"U+	c #B98857",
"V+	c #BA8858",
"W+	c #BA8958",
"X+	c #BB8A59",
"Y+	c #BB8B59",
"Z+	c #BC8B5A",
"`+	c #BC8C5B",
" @	c #BD8C5B",
".@	c #BC8C5A",
"+@	c #BB8C5B",
"@@	c #BB8C5A",
"#@	c #BB8B5A",
"$@	c #BA8B59",
"%@	c #B98B59",
"&@	c #B98A58",
"*@	c #B88A58",
"=@	c #B88958",
"-@	c #B88957",
";@	c #B78857",
">@	c #B78756",
",@	c #B68656",
"'@	c #B68655",
")@	c #B58655",
"!@	c #B58554",
"~@	c #B48454",
"{@	c #B38353",
"]@	c #AD7D4F",
"^@	c #A97A4D",
"/@	c #AE7E4F",
"(@	c #B08050",
"_@	c #AF7F4F",
":@	c #AE7E4E",
"<@	c #AD7D4D",
"[@	c #AC7C4D",
"}@	c #AA7A4B",
"|@	c #A17246",
"1@	c #92653B",
"2@	c #8C5E34",
"3@	c #8C5D32",
"4@	c #8B5B31",
"5@	c #8A5A30",
"6@	c #89592F",
"7@	c #86582E",
"8@	c #744B27",
"9@	c #8E623D",
"0@	c #9C6B43",
"a@	c #9F6E43",
"b@	c #95663E",
"c@	c #8D5F38",
"d@	c #875931",
"e@	c #895B31",
"f@	c #8A5B31",
"g@	c #8B5C32",
"h@	c #8B5C33",
"i@	c #8C5D34",
"j@	c #8D5E34",
"k@	c #8E6035",
"l@	c #8F6136",
"m@	c #906237",
"n@	c #95673D",
"o@	c #9E7045",
"p@	c #B28152",
"q@	c #B58454",
"r@	c #B78656",
"s@	c #BA8A59",
"t@	c #BD8D5B",
"u@	c #BD8D5C",
"v@	c #BE8E5C",
"w@	c #BF8F5D",
"x@	c #BF905E",
"y@	c #C0905E",
"z@	c #C0905F",
"A@	c #C0915F",
"B@	c #C09160",
"C@	c #BF915F",
"D@	c #BF915E",
"E@	c #BE8F5D",
"F@	c #BE8F5C",
"G@	c #BD8E5C",
"H@	c #BC8D5B",
"I@	c #BB8D5A",
"J@	c #B78856",
"K@	c #B58555",
"L@	c #B38453",
"M@	c #B38352",
"N@	c #B28251",
"O@	c #B18150",
"P@	c #A77849",
"Q@	c #976A3F",
"R@	c #916237",
"S@	c #906135",
"T@	c #8F6034",
"U@	c #8F5F33",
"V@	c #8E5E32",
"W@	c #8D5D31",
"X@	c #8C5C31",
"Y@	c #895A2F",
"Z@	c #764D28",
"`@	c #95673E",
" #	c #855831",
".#	c #885A30",
"+#	c #895A31",
"@#	c #8B5B32",
"##	c #8C5D33",
"$#	c #8D5D34",
"%#	c #8E5F35",
"&#	c #926338",
"*#	c #936439",
"=#	c #94653A",
"-#	c #95673C",
";#	c #9A6C42",
">#	c #A5774B",
",#	c #B18253",
"'#	c #B78757",
")#	c #BE8E5D",
"!#	c #BF905D",
"~#	c #C1905F",
"{#	c #C1915F",
"]#	c #C19260",
"^#	c #C29361",
"/#	c #C29461",
"(#	c #C39462",
"_#	c #C39562",
":#	c #C29562",
"<#	c #C29462",
"[#	c #C19360",
"}#	c #C09260",
"|#	c #BC8E5B",
"1#	c #BA8C59",
"2#	c #BA8B58",
"3#	c #B68857",
"4#	c #B08252",
"5#	c #AB7F4F",
"6#	c #AB7D4E",
"7#	c #AA7C4D",
"8#	c #AD7E4E",
"9#	c #A07346",
"0#	c #93663B",
"a#	c #946438",
"b#	c #936237",
"c#	c #926236",
"d#	c #916135",
"e#	c #906134",
"f#	c #906034",
"g#	c #8E5F33",
"h#	c #8B5C30",
"i#	c #774E29",
"j#	c #997760",
"k#	c #A16E47",
"l#	c #A26E45",
"m#	c #A26F44",
"n#	c #8C6039",
"o#	c #825730",
"p#	c #83552E",
"q#	c #84562E",
"r#	c #85572F",
"s#	c #86582F",
"t#	c #8C5E35",
"u#	c #8F6137",
"v#	c #8F6237",
"w#	c #92633A",
"x#	c #93643A",
"y#	c #93653B",
"z#	c #94653C",
"A#	c #96693F",
"B#	c #9F7347",
"C#	c #AD7F51",
"D#	c #BA8B5A",
"E#	c #BB8B5B",
"F#	c #BC8D5C",
"G#	c #BD8E5D",
"H#	c #BE8F5E",
"I#	c #BF8F5E",
"J#	c #BF905F",
"K#	c #BF9160",
"L#	c #BE915F",
"M#	c #BE905F",
"N#	c #BD905E",
"O#	c #BD8F5E",
"P#	c #BC8E5D",
"Q#	c #BC8E5C",
"R#	c #BB8D5C",
"S#	c #BA8C5B",
"T#	c #B98B5A",
"U#	c #B98A59",
"V#	c #B68757",
"W#	c #B58656",
"X#	c #B48554",
"Y#	c #B28353",
"Z#	c #B18252",
"`#	c #AC7E4F",
" $	c #9A6E43",
".$	c #93653A",
"+$	c #916136",
"@$	c #906035",
"#$	c #8E5F34",
"$$	c #8D5E33",
"%$	c #764D29",
"&$	c #F0EDEA",
"*$	c #94745E",
"=$	c #875C38",
"-$	c #875C39",
";$	c #7D5534",
">$	c #6C4728",
",$	c #6B4624",
"'$	c #6C4725",
")$	c #6E4726",
"!$	c #6F4826",
"~$	c #6F4927",
"{$	c #704927",
"]$	c #714A28",
"^$	c #714B28",
"/$	c #724C29",
"($	c #734C2A",
"_$	c #744D2B",
":$	c #754E2B",
"<$	c #754E2C",
"[$	c #764F2C",
"}$	c #77502D",
"|$	c #78512E",
"1$	c #79522E",
"2$	c #79522F",
"3$	c #795230",
"4$	c #7A5331",
"5$	c #7B5431",
"6$	c #7C5532",
"7$	c #7D5632",
"8$	c #7D5633",
"9$	c #7E5834",
"0$	c #7D5936",
"a$	c #88633F",
"b$	c #997048",
"c$	c #9C734B",
"d$	c #9D744B",
"e$	c #9E754C",
"f$	c #9F764C",
"g$	c #9F764D",
"h$	c #9F774D",
"i$	c #A0774E",
"j$	c #A1774E",
"k$	c #A1774F",
"l$	c #A1784F",
"m$	c #A0784E",
"n$	c #9F774E",
"o$	c #9E764C",
"p$	c #9D754B",
"q$	c #9C744B",
"r$	c #9B744A",
"s$	c #9B734A",
"t$	c #9A7249",
"u$	c #9A7149",
"v$	c #997148",
"w$	c #987047",
"x$	c #986F46",
"y$	c #976F46",
"z$	c #966E45",
"A$	c #946C43",
"B$	c #85603A",
"C$	c #7B5531",
"D$	c #7B542F",
"E$	c #7A532E",
"F$	c #7A522E",
"G$	c #79522D",
"H$	c #78512D",
"I$	c #78502C",
"J$	c #77502B",
"K$	c #764F2B",
"L$	c #754E2A",
"M$	c #754D2A",
"N$	c #724C28",
"O$	c #603F21",
"  . + + + @ @ # $ % & & & & & & & & & & & & & & & & & & * = - ; > > , ' ) ! ! ! ! ~ ~ { { ] ] ] ] ] ] ] ] ] ] ] ] ] ] ] ] { { ~ ~ ! ! ! ! ' ' ' ^ / ( ( _ : : < [ [ + + @ @ } : | 1 2 3 & % 4 ",
"5 6 7 7 8 9 0 a b c d d d d d d d d d d d d d d d d d e f g g h i j k l m n o p n q r r p p p s s s s s s s s s s s s s p p p t t u v v w w x x x y z z A B B C D E C D F G H I J K L c d b M ",
"N O P C Q R S f T T T T T U g g g g T T T T T T T T V W X Y Z ` ` `  .` ..+.@.#.$.%.&.*.=.-.;.;.>.>.;.;.;.;.;.;.;.;.;.;.>.>.>.>.,.,.,.'.).).!.!.~.~.{.].^./.^./.p (._.:.<.[.}.|.1.W 1.1.V U 2.",
"3.E Q R S e T T T T T U g 4.5.6.5.7.8.V W W W 9.9.0.a.b.c.d.e.f.g.h.i.j.k.k.l.l.m.l.n.o.p.q.r.s.t.u.v.w.x.y.z.A.B.C.D.E.F.F.F.F.F.G.G.G.H.I.I.G.I.J.-.K.L.u.M.N.O.P.Q.R.S.b.b.T.Q.U.V.W.X.Y.Z.",
"`.j  +e T T T T T V .+++@+#+.+$+%+}.&+}.X.Y.Y.*+O.=+-+;+>+,+'+l.)+!+~+{+]+]+^+/+(+_+:+<+<+<+<+[+}+}+|+1+2+3+4+5+6+7+8+9+0+a+b+b+c+c+d+c+c+e+f+g+h+i+j+k+l+l+m+n+m+o+p+q+q+q+r+s+t+u+v+w+t x+y+",
"z+c T T V V .+1.W W 9.1.A+$+B+C+D+E+F+G+H+I+J+,.K+L+M+N.N+n+O+~+]+P+Q+R+<+<+S+T+U+V+W+X+X+Y+Z+Z+`+ @ @`+`+.@+@@@#@#@#@$@$@%@&@*@=@-@;@;@>@>@,@'@)@!@~@~@{@]@^@/@(@_@:@<@[@}@|@1@2@3@4@5@6@7@8@",
"9@e V V 1.e 0@%+9.V.$+a@b@c@w+d@e@f@f@g@h@i@j@J.k@l@m@B.x.n@o@k+p@q@r@T+U+W+s@X+#@.@t@u@v@v@w@w@w@x@y@z@A@A@A@A@B@A@A@A@A@C@D@x@x@w@E@F@G@H@I@@@$@&@-@J@>@K@L@M@N@O@O@:@P@Q@R@S@T@U@V@W@X@Y@Z@",
"9@U V W W W $+.+8.`@F+ #^.]..#+#f@@###$#j@%#G.l@m@R@&#y.*#=#-#n@;#>#,#'#W+X+.@`+u@v@)#w@!#y@~#{#]#]#^#^#^#/#/#(#_#_#_#:#_#:#<#/#^#[#}#A@D@!#E@G@|#I@1#2#*@3#4#5#6#7#8#9#0#a#b#c#d#e#f#g#V@h#i#",
"j#k#l#U U m#7.n#o#x p#q#r#s#].~.!.'.h@;.t#J.I.G.u#v#D.A.w#x#y#z#-#u+A#B#C#'#s@D#E#`+F#u@G#)#H#I#I#J#J#K#B@B@}#}#}#}#}#}#K#K#K#L#M#N#O#P#Q#R#+@S#T#U#=@;@V#W#X#Y#Z#`# $.$&#&#R@+$@$H.#$$$3@e@%$",
"&$*$=$-$-$;$>$> ,$'$)$!$~${$]$^$/$($_$:$<$[$}$}$|$1$2$3$y+4$5$5$6$7$8$9$0$a$b$c$d$d$e$e$f$g$h$i$i$i$j$k$l$l$l$l$l$l$l$m$m$i$i$n$h$g$o$o$p$p$q$r$s$t$u$v$w$x$y$z$A$B$C$D$E$F$G$H$I$J$K$L$M$N$O$"};
