/* XPM */
static char * little_plank_r2_xpm[] = {
"11 96 512 2",
"  	c #FFFFFE",
". 	c #764E29",
"+ 	c #81552D",
"@ 	c #81552C",
"# 	c #7F532B",
"$ 	c #7E532D",
"% 	c #8C5F39",
"& 	c #996841",
"* 	c #986740",
"= 	c #895D39",
"- 	c #80552E",
"; 	c #8C5D32",
"> 	c #8C5C31",
", 	c #895A2F",
"' 	c #85582E",
") 	c #93643B",
"! 	c #A37045",
"~ 	c #A36F45",
"{ 	c #95643E",
"] 	c #82562F",
"^ 	c #8E5E33",
"/ 	c #8D5E32",
"( 	c #8B5B30",
"_ 	c #87582F",
": 	c #94653B",
"< 	c #A47146",
"[ 	c #A46F45",
"} 	c #94643E",
"| 	c #82572F",
"1 	c #8F5F34",
"2 	c #8E5F33",
"3 	c #8A5B32",
"4 	c #98683E",
"5 	c #A57246",
"6 	c #90613C",
"7 	c #835830",
"8 	c #906034",
"9 	c #8F6033",
"0 	c #8D5D32",
"a 	c #8E5F36",
"b 	c #9C6B41",
"c 	c #A67247",
"d 	c #8A5D39",
"e 	c #845931",
"f 	c #906135",
"g 	c #8D5E33",
"h 	c #A27045",
"i 	c #A67347",
"j 	c #A06D43",
"k 	c #835835",
"l 	c #855931",
"m 	c #916136",
"n 	c #916135",
"o 	c #8F6036",
"p 	c #9A6B40",
"q 	c #A77548",
"r 	c #9B6A41",
"s 	c #7E5431",
"t 	c #865A32",
"u 	c #926237",
"v 	c #95663B",
"w 	c #A27246",
"x 	c #A97649",
"y 	c #A77347",
"z 	c #97663E",
"A 	c #794F2D",
"B 	c #865B33",
"C 	c #936338",
"D 	c #936439",
"E 	c #9D6E42",
"F 	c #A9784A",
"G 	c #AA774A",
"H 	c #92633B",
"I 	c #744B29",
"J 	c #875B33",
"K 	c #996B3F",
"L 	c #A67749",
"M 	c #AB7A4C",
"N 	c #A37146",
"O 	c #8E5F38",
"P 	c #724A26",
"Q 	c #875C34",
"R 	c #96683D",
"S 	c #A27447",
"T 	c #AC7C4D",
"U 	c #AC7B4C",
"V 	c #9E6E43",
"W 	c #895C35",
"X 	c #734A26",
"Y 	c #895F37",
"Z 	c #9F7245",
"` 	c #AC7D4D",
" .	c #AF7F4E",
"..	c #AC7C4C",
"+.	c #A9774A",
"@.	c #9B6B41",
"#.	c #865932",
"$.	c #744A26",
"%.	c #936A40",
"&.	c #A87A4C",
"*.	c #AF7F4F",
"=.	c #B0804F",
"-.	c #AD7C4D",
";.	c #98693F",
">.	c #83562F",
",.	c #A07549",
"'.	c #AD7F4F",
").	c #AE7F4F",
"!.	c #B18150",
"~.	c #AE7D4E",
"{.	c #A8774A",
"].	c #95663D",
"^.	c #81542E",
"/.	c #744B27",
"(.	c #A5794C",
"_.	c #AF8151",
":.	c #AF8050",
"<.	c #B18151",
"[.	c #A67649",
"}.	c #81542D",
"|.	c #A67A4D",
"1.	c #B18352",
"2.	c #B08251",
"3.	c #AC7C4E",
"4.	c #A37348",
"5.	c #906139",
"6.	c #83552E",
"7.	c #754B27",
"8.	c #A77B4E",
"9.	c #B48655",
"0.	c #B48554",
"a.	c #AF8051",
"b.	c #A17246",
"c.	c #8D5F37",
"d.	c #754C28",
"e.	c #A87C4F",
"f.	c #B78857",
"g.	c #B38353",
"h.	c #AF7E4F",
"i.	c #9F7044",
"j.	c #8A5C34",
"k.	c #83562E",
"l.	c #764C28",
"m.	c #A97D50",
"n.	c #B88958",
"o.	c #B88957",
"p.	c #B58655",
"q.	c #B08051",
"r.	c #9C6E42",
"s.	c #895B32",
"t.	c #84562F",
"u.	c #764C29",
"v.	c #AA7E51",
"w.	c #B98A58",
"x.	c #B68655",
"y.	c #AF7F51",
"z.	c #9B6D42",
"A.	c #85572F",
"B.	c #764D29",
"C.	c #BA8B59",
"D.	c #B78756",
"E.	c #AE7F50",
"F.	c #996C41",
"G.	c #8A5B33",
"H.	c #AB7F52",
"I.	c #BB8C5A",
"J.	c #B88857",
"K.	c #AC7E4F",
"L.	c #986A3F",
"M.	c #8A5C33",
"N.	c #85582F",
"O.	c #774E29",
"P.	c #AB8053",
"Q.	c #BC8D5B",
"R.	c #AB7D4E",
"S.	c #97693E",
"T.	c #8B5D33",
"U.	c #865830",
"V.	c #774E2A",
"W.	c #AC8153",
"X.	c #BD8E5C",
"Y.	c #BC8E5B",
"Z.	c #AA7B4D",
"`.	c #95673D",
" +	c #8C5D34",
".+	c #AD8154",
"++	c #BD8E5D",
"@+	c #B98A59",
"#+	c #93663B",
"$+	c #8B5D34",
"%+	c #784E2A",
"&+	c #AD8254",
"*+	c #BE905D",
"=+	c #BE8F5D",
"-+	c #A8794C",
";+	c #92643A",
">+	c #865930",
",+	c #AE8355",
"'+	c #BE905E",
")+	c #BF905D",
"!+	c #A7794B",
"~+	c #916339",
"{+	c #875930",
"]+	c #784F2A",
"^+	c #BF905F",
"/+	c #BF905E",
"(+	c #A7794C",
"_+	c #91633A",
":+	c #8D5E34",
"<+	c #875931",
"[+	c #AF8456",
"}+	c #BF925F",
"|+	c #C0915F",
"1+	c #BC8C5A",
"2+	c #A77A4C",
"3+	c #C09260",
"4+	c #C1915F",
"5+	c #8D5E35",
"6+	c #875A31",
"7+	c #794F2A",
"8+	c #B08557",
"9+	c #C19360",
"0+	c #C19260",
"a+	c #885A31",
"b+	c #C19361",
"c+	c #A87B4D",
"d+	c #92643B",
"e+	c #8E5E35",
"f+	c #885A32",
"g+	c #794F2B",
"h+	c #B18558",
"i+	c #92653A",
"j+	c #C19461",
"k+	c #BD8F5C",
"l+	c #A97C4D",
"m+	c #93653B",
"n+	c #B18658",
"o+	c #C29461",
"p+	c #BE8F5C",
"q+	c #AA7C4E",
"r+	c #93653C",
"s+	c #8D5F36",
"t+	c #7A502B",
"u+	c #BE8E5D",
"v+	c #AC7D4F",
"w+	c #B28658",
"x+	c #C29361",
"y+	c #AD7F50",
"z+	c #96693E",
"A+	c #AE7F51",
"B+	c #976A3F",
"C+	c #8E6036",
"D+	c #AF8152",
"E+	c #B08253",
"F+	c #9A6D42",
"G+	c #B28354",
"H+	c #9C6F43",
"I+	c #B28558",
"J+	c #B48555",
"K+	c #9E7044",
"L+	c #C19261",
"M+	c #B68656",
"N+	c #A07246",
"O+	c #B88757",
"P+	c #A27347",
"Q+	c #B18457",
"R+	c #B98858",
"S+	c #A37549",
"T+	c #C19160",
"U+	c #BE8E5C",
"V+	c #BA8958",
"W+	c #A5774A",
"X+	c #8E6038",
"Y+	c #C0905E",
"Z+	c #BE8D5C",
"`+	c #A7784C",
" @	c #90623A",
".@	c #B08456",
"+@	c #C0905F",
"@@	c #BA8858",
"#@	c #A9794D",
"$@	c #B08356",
"%@	c #C08F5E",
"&@	c #BD8D5B",
"*@	c #BA8857",
"=@	c #AB7B4E",
"-@	c #94673D",
";@	c #875A32",
">@	c #79502B",
",@	c #AF8355",
"'@	c #BF8F5E",
")@	c #BF8F5D",
"!@	c #BD8C5B",
"~@	c #B98857",
"{@	c #AD7D4F",
"]@	c #96693F",
"^@	c #AF8255",
"/@	c #BC8C5B",
"(@	c #AF7E50",
"_@	c #996A40",
":@	c #875932",
"<@	c #AE8255",
"[@	c #BC8B5A",
"}@	c #B98757",
"|@	c #B28051",
"1@	c #9B6C42",
"2@	c #865931",
"3@	c #AE8154",
"4@	c #BD8D5C",
"5@	c #BB8B59",
"6@	c #B98656",
"7@	c #B38152",
"8@	c #794E2B",
"9@	c #BB8A59",
"0@	c #B88656",
"a@	c #B48152",
"b@	c #A07045",
"c@	c #885B34",
"d@	c #AD8053",
"e@	c #B78555",
"f@	c #B48052",
"g@	c #A27147",
"h@	c #8B5D36",
"i@	c #AC7F52",
"j@	c #BB8B5A",
"k@	c #B38051",
"l@	c #A47348",
"m@	c #A77B4F",
"n@	c #B68454",
"o@	c #B37F51",
"p@	c #A77549",
"q@	c #91623A",
"r@	c #794E2A",
"s@	c #9D7349",
"t@	c #B78757",
"u@	c #B88756",
"v@	c #B68354",
"w@	c #B27F51",
"x@	c #AA774B",
"y@	c #94643C",
"z@	c #936A42",
"A@	c #B08152",
"B@	c #B58353",
"C@	c #B27E50",
"D@	c #AC784C",
"E@	c #96663E",
"F@	c #774E2B",
"G@	c #8C633B",
"H@	c #A87A4D",
"I@	c #B48252",
"J@	c #B17D50",
"K@	c #AD784C",
"L@	c #9A6840",
"M@	c #79502D",
"N@	c #8A5F38",
"O@	c #A17347",
"P@	c #B18153",
"Q@	c #B07D4F",
"R@	c #9C6A42",
"S@	c #7D5330",
"T@	c #B48253",
"U@	c #B07C4E",
"V@	c #AC774B",
"W@	c #9F6C44",
"X@	c #825633",
"Y@	c #895E37",
"Z@	c #96673D",
"`@	c #A37448",
" #	c #B17F51",
".#	c #B27F50",
"+#	c #AF7B4E",
"@#	c #AB764B",
"##	c #865A36",
"$#	c #885D37",
"%#	c #94663C",
"&#	c #9C6E43",
"*#	c #AB7A4D",
"=#	c #B17E50",
"-#	c #AE7A4D",
";#	c #AB764A",
">#	c #A67147",
",#	c #8B5E39",
"'#	c #885D36",
")#	c #97683E",
"!#	c #A57548",
"~#	c #AF7C4E",
"{#	c #AD794C",
"]#	c #AA7549",
"^#	c #91623C",
"/#	c #875C36",
"(#	c #93643A",
"_#	c #9E6F44",
":#	c #AC7A4C",
"<#	c #AC784B",
"[#	c #A97449",
"}#	c #A67046",
"|#	c #865B35",
"1#	c #926439",
"2#	c #916338",
"3#	c #986A40",
"4#	c #A67549",
"5#	c #AB774B",
"6#	c #A87448",
"7#	c #A57045",
"8#	c #95653E",
"9#	c #865B34",
"0#	c #926339",
"a#	c #94663B",
"b#	c #A17145",
"c#	c #A9764A",
"d#	c #855B33",
"e#	c #916237",
"f#	c #8F6238",
"g#	c #9C6D42",
"h#	c #A87549",
"i#	c #A67246",
"j#	c #A46E45",
"k#	c #855A33",
"l#	c #906237",
"m#	c #906136",
"n#	c #8C5F35",
"o#	c #A57146",
"p#	c #A36E45",
"q#	c #845932",
"r#	c #906137",
"s#	c #8F6136",
"t#	c #A47147",
"u#	c #8E6035",
"v#	c #95653C",
"w#	c #A37046",
"x#	c #A57046",
"y#	c #835831",
"z#	c #8E5F35",
"A#	c #A47045",
"B#	c #825731",
"C#	c #8D5F35",
"D#	c #895B33",
"E#	c #815630",
"F#	c #8C5D33",
"G#	c #96663D",
"H#	c #A47046",
"I#	c #8C5C32",
"J#	c #97673E",
"K#	c #80552F",
"L#	c #8B5C33",
"M#	c #8B5B32",
"N#	c #99683F",
"O#	c #A16F44",
"P#	c #A16D44",
"Q#	c #7F542E",
"R#	c #8A5B31",
"S#	c #9F6D43",
"T#	c #9F6C43",
"U#	c #895B31",
"V#	c #9E6D43",
"W#	c #9F6D44",
"X#	c #9E6B43",
"Y#	c #7D532D",
"Z#	c #7C522C",
"`#	c #885B32",
" $	c #7B512B",
".$	c #86582F",
"+$	c #8C5D36",
"@$	c #A26E44",
"#$	c #7B502B",
"$$	c #A06E44",
"%$	c #A06F45",
"&$	c #A06D44",
"*$	c #7A4F2A",
"=$	c #855830",
"-$	c #A26E45",
";$	c #895C34",
">$	c #95653F",
",$	c #8F6139",
"'$	c #91623D",
")$	c #7A512D",
"!$	c #A06C43",
"~$	c #875B36",
"{$	c #825733",
"]$	c #9D6C42",
"^$	c #A26F45",
"/$	c #A36E44",
"($	c #96653D",
"_$	c #7A502D",
":$	c #8C5F3A",
"<$	c #9E6B42",
"[$	c #734B27",
"}$	c #94653E",
"|$	c #95643D",
"1$	c #82552F",
"2$	c #734A25",
"3$	c #966640",
"4$	c #A67146",
"5$	c #7E512A",
"6$	c #734925",
"7$	c #96663F",
"8$	c #7D5129",
"9$	c #734924",
"0$	c #976946",
"a$	c #A36F46",
"b$	c #8C5D37",
"c$	c #7E512B",
"d$	c #764F31",
"e$	c #B49C8E",
"f$	c #9A6C48",
"g$	c #996840",
"h$	c #986841",
"i$	c #8E603B",
"j$	c #7D522E",
"k$	c #764B26",
"l$	c #785132",
"m$	c #A29289",
"                      ",
"  . + @ # $ % & * =   ",
"  - ; > , ' ) ! ~ {   ",
"  ] ^ / ( _ : < [ }   ",
"  | 1 2 > 3 4 5 ~ 6   ",
"  7 8 9 0 a b c ~ d   ",
"  e f 8 g : h i j k   ",
"  l m n o p q i r s   ",
"  t u m v w x y z A   ",
"  B C D E F G i H I   ",
"  J D K L M G N O P   ",
"  Q R S T U G V W X   ",
"  Y Z `  ...+.@.#.$.  ",
"  %.&.*.=.-.+.;.>.$.  ",
"  ,.'.).!.~.{.].^./.  ",
"  (._.:.<.~.[.) }./.  ",
"  |.1.2.:.3.4.5.6.7.  ",
"  8.9.0.a.3.b.c.6.d.  ",
"  e.f.f.g.h.i.j.k.l.  ",
"  m.n.o.p.q.r.s.t.u.  ",
"  v.w.w.x.y.z.s.A.B.  ",
"  v.C.C.D.E.F.G.A.B.  ",
"  H.I.I.J.K.L.M.N.O.  ",
"  P.Q.Q.n.R.S.T.U.V.  ",
"  W.X.Y.w.Z.`. +U.V.  ",
"  .+++X.@+&.#+$+U.%+  ",
"  &+*+=+C.-+;+ +>+%+  ",
"  ,+'+)+I.!+~+ +{+]+  ",
"  ,+^+/+I.(+_+:+<+]+  ",
"  [+}+|+1+2+_+:+<+]+  ",
"  [+3+4+Q.&.;+5+6+7+  ",
"  8+9+0+Q.&.;+5+a+7+  ",
"  8+b+0+Y.c+d+e+f+g+  ",
"  h+b+9+X.c+i+e+f+g+  ",
"  h+j+b+k+l+m+e+f+g+  ",
"  n+o+b+p+q+r+s+f+t+  ",
"  n+o+b+u+v+`.s+f+t+  ",
"  w+o+x+u+y+z+a f+t+  ",
"  w+o+x+u+A+B+C+f+t+  ",
"  w+o+x+=+D+F.C+f+t+  ",
"  w+o+9+=+E+F+C+f+t+  ",
"  w+x+9+=+G+H+C+f+t+  ",
"  I+x+0+=+J+K+C+f+t+  ",
"  h+L+0+u+M+N+s+f+t+  ",
"  h+L+0+u+O+P+s+f+t+  ",
"  Q+0+4+u+R+S+s+f+t+  ",
"  Q+T+|+U+V+W+X+f+t+  ",
"  Q+4+Y+Z+V+`+ @f+t+  ",
"  .@+@Y+Z+@@#@d+f+t+  ",
"  $@Y+%@&@*@=@-@;@>@  ",
"  ,@'@)@!@~@{@]@;@g+  ",
"  ^@)@=+/@~@(@_@:@g+  ",
"  <@u+U+[@}@|@1@2@7+  ",
"  3@U+4@5@6@7@V #.8@  ",
"  .+4@&@9@0@a@b@c@8@  ",
"  d@/@/@V+e@f@g@h@g+  ",
"  i@1+j@R+e@k@l@O 8@  ",
"  m@9@9@~@n@o@p@q@r@  ",
"  s@t@V+u@v@w@x@y@V.  ",
"  z@A@R+0@B@C@D@E@F@  ",
"  G@H@M+e@I@J@K@L@M@  ",
"  N@O@P@n@7@Q@D@R@S@  ",
"  N@z.Z.T@k@U@V@W@X@  ",
"  Y@Z@`@ #.#+#@#~ ##  ",
"  $#%#&#*#=#-#;#>#,#  ",
"  '#: )#!#~#{#]#>#^#  ",
"  /#(#;+_#:#<#[#}#{   ",
"  |#1#2#3#4#5#6#7#8#  ",
"  9#0#2#a#b#c#y [ 8#  ",
"  d#2#e#f#g#h#i#j#8#  ",
"  k#l#m#n#;.i o#p#8#  ",
"  q#r#s#$+Z@t#o#p#8#  ",
"  q#s#u#T.v#w#x#p#8#  ",
"  y#C+z#M.v#A#x#p#8#  ",
"  B#C#:+D#v#A#x#p#8#  ",
"  E#:+F#D#G#H#x#p#8#  ",
"  E# +I#D#J#A#[ j#8#  ",
"  K#L#M#$+N#O#P#p#8#  ",
"  Q#3 R#s+r S#T#p#8#  ",
"  $ U#a+5.V#W#X#p#8#  ",
"  Y#a+{+) h W#X#p#8#  ",
"  Z#{+`#J#< T#T#p#8#  ",
"   $.$+$r h W#@$p#8#  ",
"  #$A.5.$$%$&$[ j#8#  ",
"  *$=$].< w#-$[ p#8#  ",
"  %+;$r c o#H#[ p#>$  ",
"  V.,$O#i#x#[ [ p#'$  ",
"  )$E@H#o#7#[ [ !$~$  ",
"  {$]$^$^$H#[ /$($_$  ",
"  :$~ ^$-$H#[ <$h@[$  ",
"  }$x#x#H#x#/$|$1$2$  ",
"  3$x#4$x#[ <$+$5$6$  ",
"  7$x#x#x#/$|$>.8$9$  ",
"  0$a$A#[ <$b$c$8$d$  ",
"  e$f$g$h$i$j$k$l$m$  ",
"                      "};
