/* XPM */
static char * menu_title_xpm[] = {
"228 53 8 1",
" 	c #FFFFFE",
".	c #FFFFFF",
"+	c #8E8FD5",
"@	c #A5A6DE",
"#	c #6163C5",
"$	c #E8E8F6",
"%	c #BBBCE6",
"&	c #4B4DBD",
"&&&&&&&&&&&&&&&&&&&&&&&&&&&+@%              $%+&&&&&&&&&&&&&&&&&&&&&&&&&#+%     &&&&&&&&&&&&&&&&&&&&&&&&&&&&&&&&&&&&&&&&&&&    &&&&&&&&&&&&&&&&&&&&&#++          &&&&&&&&&&&&&     &&&&&&&&&&&&&&&&&&&&#+%   &&&&&&&&&&&&&&&&&&&&#@%",
"&&&&&&&&&&&&&&&&&&&&&&&&&&&#+@             $%@#&&&&&&&&&&&&&&&&&&&&&&&&&#+%    &&&&&&&&&&&&&&&&&&&&&&&&&&&&&&&&&&&&&&&&&&&&    &&&&&&&&&&&&&&&&&&&&&##+          &&&&&&&&&&&&&&    &&&&&&&&&&&&&&&&&&&&#+%  &&&&&&&&&&&&&&&&&&&&&#@%",
"&&&&&&&&&&&&&&&&&&&&&&&&&&&&#+@%          $%+##&&&&&&&&&&&&&&&&&&&&&&&&&#+%    &&&&&&&&&&&&&&&&&&&&&&&&&&&&&&&&&&&&&&&&&&&&    &&&&&&&&&&&&&&&&&&&&&&##++        &&&&&&&&&&&&&&    &&&&&&&&&&&&&&&&&&&&#+%  &&&&&&&&&&&&&&&&&&&&&#@%",
"&&&&&&&&&&&&&&&&&&&&&&&&&&&&&#+@         $%@#&&&&&&&&&&&&&&&&&&&&&&&&&&&#+%    &&&&&&&&&&&&&&&&&&&&&&&&&&&&&&&&&&&&&&&&&&&&    &&&&&&&&&&&&&&&&&&&&&&&##+        &&&&&&&&&&&&&&    &&&&&&&&&&&&&&&&&&&&#+%  &&&&&&&&&&&&&&&&&&&&&#@%",
"&&&&&&&&&&&&&&&&&&&&&&&&&&&&&&#+@%      $%+#&&&&&&&&&&&&&&&&&&&&&&&&&&&&#+%    &&&&&&&&&&&&&&&&&&&&&&&&&&&&&&&&&&&&&&&&&&&&    &&&&&&&&&&&&&&&&&&&&&&&&##++      &&&&&&&&&&&&&&    &&&&&&&&&&&&&&&&&&&&#+%  &&&&&&&&&&&&&&&&&&&&&#@%",
"&&&&&&&&&&&&&&&&&&&&&&&&&&&&&&&#+@     $%@#&&&&&&&&&&&&&&&&&&&&&&&&&&&&&#+%    &&&&&&&&&&&&&&&&&&&&&&&&&&&&&&&&&&&&&&&&&&&&    &&&&&&&&&&&&&&&&&&&&&&&&&##+      &&&&&&&&&&&&&&    &&&&&&&&&&&&&&&&&&&&#+%  &&&&&&&&&&&&&&&&&&&&&#@%",
"&&&&&&&&&&&&&&&&&&&&&&&&&&&&&&&&#+@   $%+#&&&&&&&&&&&&&&&&&&&&&&&&&&&&&&#+%    &&&&&&&&&&&&&&&&&&&&&&&&&&&&&&&&&&&&&&&&&&&&    &&&&&&&&&&&&&&&&&&&&&&&&&&##++    &&&&&&&&&&&&&&    &&&&&&&&&&&&&&&&&&&&#+%  &&&&&&&&&&&&&&&&&&&&&#@%",
"&&&&&&&&&&&&&&&&&&&&&&&&&&&&&&&&&#+@  %@#&&&&&&&&&&&&&&&&&&&&&&&&&&&&&&&#+%    &&&&&&&&&&&&&&&&&&&&&&&&&&&&&&&&&&&&&&&&&&&&    &&&&&&&&&&&&&&&&&&&&&&&&&&&##+    &&&&&&&&&&&&&&    &&&&&&&&&&&&&&&&&&&&#+%  &&&&&&&&&&&&&&&&&&&&&#@%",
"&&&&&&&&&&&&&&&&&&&&&&&&&&&&&&&&&###  @+#&&&&&&&&&&&&&&&&&&&&&&&&&&&&&&&#+%    &&&&&&&&&&&&&&&&&&&&&&&&&&&&&&&&&&&&&&&&&&&&    &&&&&&&&&&&&&&&&&&&&&&&&&&&&#+@%  &&&&&&&&&&&&&&    &&&&&&&&&&&&&&&&&&&&#+%  &&&&&&&&&&&&&&&&&&&&&#@%",
"&&&&&&&&&&&&&&&&&&&&&&&&&&&&&&&&&&##  @+#&&&&&&&&&&&&&&&&&&&&&&&&&&&&&&&#+%    &&&&&&&&&&&&&&&&&&&&&&&&&&&&&&&&&&&&&&&&&&&&    &&&&&&&&&&&&&&&&&&&&&&&&&&&&&+@%  &&&&&&&&&&&&&&    &&&&&&&&&&&&&&&&&&&&#+%  &&&&&&&&&&&&&&&&&&&&&#@%",
"&&&&&&&&&&&&&&&&&&&&&&&&&&&&&&&&&&##  @+#&&&&&&&&&&&&&&&&&&&&&&&&&&&&&&&#+%    &&&&&&&&&&&&&&&&&&&&&&&&&&&&&&&&&&&&&&&&&&&&    &&&&&&&&&&&&&&&&&&&&&&&&&&&&&+@%  &&&&&&&&&&&&&&    &&&&&&&&&&&&&&&&&&&&#+%  &&&&&&&&&&&&&&&&&&&&&#@%",
"&&&&&&&&&&&&&&&&&&&&&&&&&&&&&&&&&&##  @+#&&&&&&&&&&&&&&&&&&&&&&&&&&&&&&&#+%    &&&&&&&&&&&&&&&&&&&&&&&&&&&&&&&&&&&&&&&&&&&&    &&&&&&&&&&&&&&&&&&&&&&&&&&&&&+@%  &&&&&&&&&&&&&&    &&&&&&&&&&&&&&&&&&&&#+%  &&&&&&&&&&&&&&&&&&&&&#@%",
"&&&&&&&&&&&&&&&&&&&&&&&&&&&&&&&&&&##  @+#&&&&&&&&&&&&&&&&&&&&&&&&&&&&&&&#+%    &&&&&&&&&&&&&&&&&&&&&&&&&&&&&&&&&&&&&&&&&&&&    &&&&&&&&&&&&&&&&&&&&&&&&&&&&&+@%  &&&&&&&&&&&&&&    &&&&&&&&&&&&&&&&&&&&#+%  &&&&&&&&&&&&&&&&&&&&&#@%",
"&&&&&&&&&&&&&&&&&&&&&&&&&&&&&&&&&&##  @+#&&&&&&&&&&&&&&&&&&&&&&&&&&&&&&&#+%    &&&&&&&&&&&&&&&&&&&&&&&&&&&&&&&&&&&&&&&&&&&&    &&&&&&&&&&&&&&&&&&&&&&&&&&&&&+@%  &&&&&&&&&&&&&&    &&&&&&&&&&&&&&&&&&&&#+%  &&&&&&&&&&&&&&&&&&&&&#@%",
"&&&&&&&&&&&&&&&&&&&&&&&&&&&&&&&&&&##  @+#&&&&&&&&&&&&&&&&&&&&&&&&&&&&&&&#+%    &&&&&&&&&&&&&&&&&&&&&&&&&&&&&&&&&&&&&&&&&&&&    &&&&&&&&&&&&&&&&&&&&&&&&&&&&&+@%  &&&&&&&&&&&&&&    &&&&&&&&&&&&&&&&&&&&#+%  &&&&&&&&&&&&&&&&&&&&&#@%",
"&&&&&&&&&&&&&&&&&&&&&&&&&&&&&&&&&&#&&#+#&&&&&&&&&&&&&&&&&&&&&&&&&&&&&&&&#+%    &&&&&&&&&&&&&&&&&&&&&&&&&&&&&&&&&&&&&&&&&&&     &&&&&&&&&&&&&&&&&&&&&&&&&&&&&+@%  &&&&&&&&&&&&&&    &&&&&&&&&&&&&&&&&&&&#+%  &&&&&&&&&&&&&&&&&&&&&#@%",
"&&&&&&&&&&&&&&&&&&&&&&&&&&&&&&&&&&&&&&#&&&&&&&&&&&&&&&&&&&&&&&&&&&&&&&&&#+%    &&&&&&&&&&&&&&&&&&                              &&&&&&&&&&&&&&&&&&&&&&&&&&&&&+@%  &&&&&&&&&&&&&&    &&&&&&&&&&&&&&&&&&&&#+%  &&&&&&&&&&&&&&&&&&&&&#@%",
"&&&&&&&&&&&&&&&&&&&&&&&&&&&&&&&&&&&&&&&&&&&&&&&&&&&&&&&&&&&&&&&&&&&&&&&&#+%    &&&&&&&&&&&&&&&&&&&                             &&&&&&&&&&&&&&&&&&&&&&&&&&&&&+@%  &&&&&&&&&&&&&&    &&&&&&&&&&&&&&&&&&&&#+%  &&&&&&&&&&&&&&&&&&&&&#@%",
"&&&&&&&&&&&&&&&&&&&&&&&&&&&&&&&&&&&&&&&&&&&&&&&&&&&&&&&&&&&&&&&&&&&&&&&&#+%    &&&&&&&&&&&&&&&&&&&&&&&&&&&&&&&&&&&&            &&&&&&&&&&&&&&&&&&&&&&&&&&&&&+@%  &&&&&&&&&&&&&&    &&&&&&&&&&&&&&&&&&&&#+%  &&&&&&&&&&&&&&&&&&&&&#@%",
"&&&&&&&&&&&&&&&&&&&&&&&&&&&&&&&&&&&&&&&&&&&&&&&&&&&&&&&&&&&&&&&&&&&&&&&&#+%    &&&&&&&&&&&&&&&&&&&&&&&&&&&&&&&&&&&&            &&&&&&&&&&&&&&&&&&&&&&&&&&&&&+@%  &&&&&&&&&&&&&&    &&&&&&&&&&&&&&&&&&&&#+%  &&&&&&&&&&&&&&&&&&&&&#@%",
"&&&&&&&&&&&&&&&&&&&&&&&&&&&&&&&&&&&&&&&&&&&&&&&&&&&&&&&&&&&&&&&&&&&&&&&&#+%    &&&&&&&&&&&&&&&&&&&&&&&&&&&&&&&&&&&&            &&&&&&&&&&&&&&&&&&&&&&&&&&&&&+@%  &&&&&&&&&&&&&&    &&&&&&&&&&&&&&&&&&&&#+%  &&&&&&&&&&&&&&&&&&&&&#@%",
"&&&&&&&&&&&&&&&&&&&&&&&&&&&&&&&&&&&&&&&&&&&&&&&&&&&&&&&&&&&&&&&&&&&&&&&&#+%    &&&&&&&&&&&&&&&&&&&&&&&&&&&&&&&&&&&&            &&&&&&&&&&&&&&&&&&&&&&&&&&&&&+@%  &&&&&&&&&&&&&&    &&&&&&&&&&&&&&&&&&&&#+%  &&&&&&&&&&&&&&&&&&&&&#@%",
"&&&&&&&&&&&&&&&&&&&&&&&&&&&&&&&&&&&&&&&&&&&&&&&&&&&&&&&&&&&&&&&&&&&&&&&&#+%    &&&&&&&&&&&&&&&&&&&&&&&&&&&&&&&&&&&&            &&&&&&&&&&&&&&&&&&&&&&&&&&&&&+@%  &&&&&&&&&&&&&&    &&&&&&&&&&&&&&&&&&&&#+%  &&&&&&&&&&&&&&&&&&&&&#@%",
"&&&&&&&&&&&&&&&&&&&&&&&&&&&&&&&&&&&&&&&&&&&&&&&&&&&&&&&&&&&&&&&&&&&&&&&&#+%    &&&&&&&&&&&&&&&&&&&&&&&&&&&&&&&&&&&&            &&&&&&&&&&&&&&&&&&&&&&&&&&&&&+%%  &&&&&&&&&&&&&&    &&&&&&&&&&&&&&&&&&&&#+%  &&&&&&&&&&&&&&&&&&&&&#@%",
"&&&&&&&&&&&&&&&&&&&&&&&&&&&&&&&&&&&&&&&&&&&&&&&&&&&&&&&&&&&&&&&&&&&&&&&&#+%    &&&&&&&&&&&&&&&&&&&&&&&&&&&&&&&&&&&&            &&&&&&&&&&&&&&&&&&&&&&&&&&&&&+@%  &&&&&&&&&&&&&&    &&&&&&&&&&&&&&&&&&&&#+%  &&&&&&&&&&&&&&&&&&&&&#@%",
"&&&&&&&&&&&&&&&&&&&&&&&&&&&&&&&&&&&&&&&&&&&&&&&&&&&&&&&&&&&&&&&&&&&&&&&&#+%    &&&&&&&&&&&&&&&&&&&&&&&&&&&&&&&&&&&&            &&&&&&&&&&&&&&&&&&&&&&&&&&&&&#++#&&&&&&&&&&&&&&&    &&&&&&&&&&&&&&&&&&&&#+%  &&&&&&&&&&&&&&&&&&&&&#@%",
"&&&&&&&&&&&&&&&&&&&&&&&&&&&&&&&&&&&&&&&&&&&&&&&&&&&&&&&&&&&&&&&&&&&&&&&&#+%    &&&&&&&&&&&&&&&&&&&&&&&&&&&&&&&&&&&&            &&&&&&&&&&&&&&&&&&&&&&&&&&&&&&##&&&&&&&&&&&&&&&&    &&&&&&&&&&&&&&&&&&&&#+%  &&&&&&&&&&&&&&&&&&&&&#@%",
"&&&&&&&&&&&&&&&&&&&&&&&&&&&&&&&&&&&&&&&&&&&&&&&&&&&&&&&&&&&&&&&&&&&&&&&&#+%    &&&&&&&&&&&&&&&&&&&&&&&&&&&&&&&&&&&&            &&&&&&&&&&&&&&&#++#&&&&&&&&&&&&&&&&&&&&&&&&&&&&&    &&&&&&&&&&&&&&&&&&&&#+%  &&&&&&&&&&&&&&&&&&&&&#@%",
"&&&&&&&&&&&&&&&&&&&&&&&&&&&&&&&&&&&&&&&&&&&&&&&&#&&&&&&&&&&&&&&&&&&&&&&&#+%    &&&&&&&&&&&&&&&&&&&&&&&&&&&&&&&&&&&&            &&&&&&&&&&&&&&  %@#&&&&&&&&&&&&&&&&&&&&&&&&&&&&&    &&&&&&&&&&&&&&&&&&&&#+%  &&&&&&&&&&&&&&&&&&&&&#@%",
"&&&&&&&&&&&&&&&&&&&&&#++#&&&&&&&&&&&&&&&&&&&&&&#++#&&&&&&&&&&&&&&&&&&&&&#+%    &&&&&&&&&&&&&&&&&&&&&&&&&&&&&&&&&&&&            &&&&&&&&&&&&&&  %@#&&&&&&&&&&&&&&&&&&&&&&&&&&&&&    &&&&&&&&&&&&&&&&&&&&#+%  &&&&&&&&&&&&&&&&&&&&&#@%",
"&&&&&&&&&&&&&&&&&&&&&+@%  &&&&&&&&&&&&&&&&&&&&&+@% &&&&&&&&&&&&&&&&&&&&&#+%    &&&&&&&&&&&&&&&&&&&&&&&&&&&&&&&&&&&&            &&&&&&&&&&&&&&  %@#&&&&&&&&&&&&&&&&&&&&&&&&&&&&&    &&&&&&&&&&&&&&&&&&&&#+%  &&&&&&&&&&&&&&&&&&&&&#@%",
"&&&&&&&&&&&&&&&&&&&&&+@%  &&&&&&&&&&&&&&&&&&&&#+%%  &&&&&&&&&&&&&&&&&&&&#+%    &&&&&&&&&&&&&&&&&&&&&&&&&&&&&&&&&&&&            &&&&&&&&&&&&&&  %@#&&&&&&&&&&&&&&&&&&&&&&&&&&&&&    &&&&&&&&&&&&&&&&&&&&#+%  &&&&&&&&&&&&&&&&&&&&&#@%",
"&&&&&&&&&&&&&&&&&&&&&+@%  &&&&&&&&&&&&&&&&&&&&#+%%  &&&&&&&&&&&&&&&&&&&&#+%    &&&&&&&&&&&&&&&&&&&&&&&&&&&&&&&&&&&&            &&&&&&&&&&&&&&  %@#&&&&&&&&&&&&&&&&&&&&&&&&&&&&&    &&&&&&&&&&&&&&&&&&&&#+%  &&&&&&&&&&&&&&&&&&&&&#@%",
"&&&&&&&&&&&&&&&&&&&&&+@%  &&&&&&&&&&&&&&&&&&&&#+%%  &&&&&&&&&&&&&&&&&&&&#+%    &&&&&&&&&&&&&&&&&&&&&&&&&&&&&&&&&&&             &&&&&&&&&&&&&&  %@#&&&&&&&&&&&&&&&&&&&&&&&&&&&&&    &&&&&&&&&&&&&&&&&&&&#+%  &&&&&&&&&&&&&&&&&&&&&#@%",
"&&&&&&&&&&&&&&&&&&&&&+@%  &&&&&&&&&&&&&&&&&&&&#+%%  &&&&&&&&&&&&&&&&&&&&#+%    &&&&&&&&&&&&&&&&&&                              &&&&&&&&&&&&&&  %@#&&&&&&&&&&&&&&&&&&&&&&&&&&&&&    &&&&&&&&&&&&&&&&&&&&#+%  &&&&&&&&&&&&&&&&&&&&&#@%",
"&&&&&&&&&&&&&&&&&&&&&+@%  &&&&&&&&&&&&&&&&&&&&#+%%  &&&&&&&&&&&&&&&&&&&&#+%    &&&&&&&&&&&&&&&&&&                              &&&&&&&&&&&&&&  %@#&&&&&&&&&&&&&&&&&&&&&&&&&&&&&    &&&&&&&&&&&&&&&&&&&&#+%  &&&&&&&&&&&&&&&&&&&&&#@%",
"&&&&&&&&&&&&&&&&&&&&&+@%  &&&&&&&&&&&&&&&&&&&&#+%%  &&&&&&&&&&&&&&&&&&&&#+%    &&&&&&&&&&&&&&&&&&                              &&&&&&&&&&&&&&  %@#&&&&&&&&&&&&&&&&&&&&&&&&&&&&&    &&&&&&&&&&&&&&&&&&&&#+@  &&&&&&&&&&&&&&&&&&&&&#@%",
"&&&&&&&&&&&&&&&&&&&&&+@%  &&&&&&&&&&&&&&&&&&&&#+%%  &&&&&&&&&&&&&&&&&&&&#+%    &&&&&&&&&&&&&&&&&&&& &&&&&&&&&&&&&&&&&&&&&&     &&&&&&&&&&&&&&  %@#&&&&&&&&&&&&&&&&&&&&&&&&&&&&&    &&&&&&&&&&&&&&&&&&&&#+++&&&&&&&&&&&&&&&&&&&&&&#@%",
"&&&&&&&&&&&&&&&&&&&&&+@%  &&&&&&&&&&&&&&&&&&&&#+%%  &&&&&&&&&&&&&&&&&&&&#+%    &&&&&&&&&&&&&&&&&&&&&&&&&&&&&&&&&&&&&&&&&&&&    &&&&&&&&&&&&&&  %@#&&&&&&&&&&&&&&&&&&&&&&&&&&&&&    &&&&&&&&&&&&&&&&&&&&&&#&&&&&&&&&&&&&&&&&&&&&&&#@%",
"&&&&&&&&&&&&&&&&&&&&&+@%  &&&&&&&&&&&&&&&&&&&&#+%%  &&&&&&&&&&&&&&&&&&&&#+%    &&&&&&&&&&&&&&&&&&&&&&&&&&&&&&&&&&&&&&&&&&&&    &&&&&&&&&&&&&&  %@#&&&&&&&&&&&&&&&&&&&&&&&&&&&&&    &&&&&&&&&&&&&&&&&&&&&&&&&&&&&&&&&&&&&&&&&&&&&&#@%",
"&&&&&&&&&&&&&&&&&&&&&+@%  &&&&&&&&&&&&&&&&&&&&#+%%  &&&&&&&&&&&&&&&&&&&&#+%    &&&&&&&&&&&&&&&&&&&&&&&&&&&&&&&&&&&&&&&&&&&&    &&&&&&&&&&&&&&  %@#&&&&&&&&&&&&&&&&&&&&&&&&&&&&&    &&&&&&&&&&&&&&&&&&&&&&&&&&&&&&&&&&&&&&&&&&&&&&#@%",
"&&&&&&&&&&&&&&&&&&&&&+@%  &&&&&&&&&&&&&&&&&&&&#+%%  &&&&&&&&&&&&&&&&&&&&#+%    &&&&&&&&&&&&&&&&&&&&&&&&&&&&&&&&&&&&&&&&&&&&    &&&&&&&&&&&&&&  %@#&&&&&&&&&&&&&&&&&&&&&&&&&&&&&    &&&&&&&&&&&&&&&&&&&&&&&&&&&&&&&&&&&&&&&&&&&&&&#@%",
"&&&&&&&&&&&&&&&&&&&&&+@%  &&&&&&&&&&&&&&&&&&&&#+%%  &&&&&&&&&&&&&&&&&&&&#+%    &&&&&&&&&&&&&&&&&&&&&&&&&&&&&&&&&&&&&&&&&&&&    &&&&&&&&&&&&&&  %@#&&&&&&&&&&&&&&&&&&&&&&&&&&&&&    &&&&&&&&&&&&&&&&&&&&&&&&&&&&&&&&&&&&&&&&&&&&&&#@%",
"&&&&&&&&&&&&&&&&&&&&&+@%  &&&&&&&&&&&&&&&&&&&&&+%%  &&&&&&&&&&&&&&&&&&&&#+%    &&&&&&&&&&&&&&&&&&&&&&&&&&&&&&&&&&&&&&&&&&&&    &&&&&&&&&&&&&&  %@#&&&&&&&&&&&&&&&&&&&&&&&&&&&&&    &&&&&&&&&&&&&&&&&&&&&&&&&&&&&&&&&&&&&&&&&&&&&&#@%",
"&&&&&&&&&&&&&&&&&&&&&+@%  #&&&&&&&&&&&&&&&&&&&#+%%  &&&&&&&&&&&&&&&&&&&&#+%    &&&&&&&&&&&&&&&&&&&&&&&&&&&&&&&&&&&&&&&&&&&&    &&&&&&&&&&&&&&  %@#&&&&&&&&&&&&&&&&&&&&&&&&&&&&&    &&&&&&&&&&&&&&&&&&&&&&&&&&&&&&&&&&&&&&&&&&&&&&#@%",
"&&&&&&&&&&&&&&&&&&&&&+@%  +#&&&&&&&&&&&&&&&&&&#@%$  &&&&&&&&&&&&&&&&&&&&#+%    &&&&&&&&&&&&&&&&&&&&&&&&&&&&&&&&&&&&&&&&&&&&    &&&&&&&&&&&&&&   @+#&&&&&&&&&&&&&&&&&&&&&&&&&&&&    &&&&&&&&&&&&&&&&&&&&&&&&&&&&&&&&&&&&&&&&&&&&&&#@%",
"&&&&&&&&&&&&&&&&&&&&&+@%  @+#&&&&&&&&&&&&&&&&#+%$   &&&&&&&&&&&&&&&&&&&&#+%    &&&&&&&&&&&&&&&&&&&&&&&&&&&&&&&&&&&&&&&&&&&&    &&&&&&&&&&&&&&    ++#&&&&&&&&&&&&&&&&&&&&&&&&&&&    &&&&&&&&&&&&&&&&&&&&&&&&&&&&&&&&&&&&&&&&&&&&&&#@%",
"&&&&&&&&&&&&&&&&&&&&&+@%   ++#&&&&&&&&&&&&&&#+%%    &&&&&&&&&&&&&&&&&&&&#+%    &&&&&&&&&&&&&&&&&&&&&&&&&&&&&&&&&&&&&&&&&&&&    &&&&&&&&&&&&&&     +##&&&&&&&&&&&&&&&&&&&&&&&&&&    &&&&&&&&&&&&&&&&&&&&&&&&&&&&&&&&&&&&&&&&&&&&&&#@%",
"&&&&&&&&&&&&&&&&&&&&&+@%    @+#&&&&&&&&&&&&#+@$$    &&&&&&&&&&&&&&&&&&&&#+%    &&&&&&&&&&&&&&&&&&&&&&&&&&&&&&&&&&&&&&&&&&&&    &&&&&&&&&&&&&&      ++#&&&&&&&&&&&&&&&&&&&&&&&&&    &&&&&&&&&&&&&&&&&&&&&&&&&&&&&&&&&&&&&&&&&&&&&&#@%",
"&&&&&&&&&&&&&&&&&&&&&+@%     ++#&&&&&&&&&&#+%%      &&&&&&&&&&&&&&&&&&&&#+%    &&&&&&&&&&&&&&&&&&&&&&&&&&&&&&&&&&&&&&&&&&&&    &&&&&&&&&&&&&&       +##&&&&&&&&&&&&&&&&&&&&&&&&    &&&&&&&&&&&&&&&&&&&&&&&&&&&&&&&&&&&&&&&&&&&&&&#@%",
"&&&&&&&&&&&&&&&&&&&&&+@%      @+#&&&&&&&&#+@$$      &&&&&&&&&&&&&&&&&&&&#+%    &&&&&&&&&&&&&&&&&&&&&&&&&&&&&&&&&&&&&&&&&&&&    &&&&&&&&&&&&&&        ++#&&&&&&&&&&&&&&&&&&&&&&&    &&&&&&&&&&&&&&&&&&&&&&&&&&&&&&&&&&&&&&&&&&&&&&#@%",
"&&&&&&&&&&&&&&&&&&&&&+@%       ++##&&&&&#+%%        &&&&&&&&&&&&&&&&&&&&#+%    &&&&&&&&&&&&&&&&&&&&&&&&&&&&&&&&&&&&&&&&&&&&    &&&&&&&&&&&&&&         +##&&&&&&&&&&&&&&&&&&&&&&    &&&&&&&&&&&&&&&&&&&&&&&&&&&&&&&&&&&&&&&&&&&&&&#@%",
"&&&&&&&&&&&&&&&&&&&&&+@%        @+#&&&&&#@$$        &&&&&&&&&&&&&&&&&&&&#+%    &&&&&&&&&&&&&&&&&&&&&&&&&&&&&&&&&&&&&&&&&&&&    &&&&&&&&&&&&&&          ++#&&&&&&&&&&&&&&&&&&&&     &&&&&&&&&&&&&&&&&&&&&&&&&&&&&&&&&&&&&&&&&&&&&&#@%"};
