/* XPM */
static char * mouse_xpm[] = {
"80 67 256 2",
"  	c #FFFFFE",
". 	c #47704C",
"+ 	c #191E2C",
"@ 	c #2A2B32",
"# 	c #332D2C",
"$ 	c #362D2A",
"% 	c #362D2A",
"& 	c #2F2E33",
"* 	c #191F2C",
"= 	c #161B29",
"- 	c #2E2E33",
"; 	c #413120",
"> 	c #43311F",
", 	c #2C2D33",
"' 	c #2B2C33",
") 	c #45311E",
"! 	c #46321C",
"~ 	c #1D222D",
"{ 	c #1C212E",
"] 	c #322D2E",
"^ 	c #46321E",
"/ 	c #3E3023",
"( 	c #302E33",
"_ 	c #171D2C",
": 	c #292A33",
"< 	c #372D28",
"[ 	c #262832",
"} 	c #111725",
"| 	c #2F2E33",
"1 	c #312D2F",
"2 	c #1B202D",
"3 	c #342F30",
"4 	c #141B2B",
"5 	c #232630",
"6 	c #3B2F25",
"7 	c #313035",
"8 	c #332D2D",
"9 	c #1F232E",
"0 	c #312E31",
"a 	c #2D2D34",
"b 	c #1C212D",
"c 	c #262831",
"d 	c #3A3536",
"e 	c #3C3533",
"f 	c #443933",
"g 	c #3C3635",
"h 	c #312F33",
"i 	c #3F3B3C",
"j 	c #463B33",
"k 	c #614A34",
"l 	c #694E35",
"m 	c #725234",
"n 	c #755434",
"o 	c #584535",
"p 	c #342D2B",
"q 	c #21252F",
"r 	c #2C2C33",
"s 	c #4D3F34",
"t 	c #6F5235",
"u 	c #765535",
"v 	c #775636",
"w 	c #534234",
"x 	c #5D4735",
"y 	c #21242F",
"z 	c #272932",
"A 	c #6B5035",
"B 	c #735334",
"C 	c #252731",
"D 	c #322F31",
"E 	c #4C3E34",
"F 	c #654D34",
"G 	c #403734",
"H 	c #2D2E34",
"I 	c #7A5939",
"J 	c #7C5D3E",
"K 	c #826242",
"L 	c #876647",
"M 	c #927354",
"N 	c #A18161",
"O 	c #AA8A6B",
"P 	c #B19174",
"Q 	c #B49476",
"R 	c #B69677",
"S 	c #AF8E6E",
"T 	c #A68667",
"U 	c #997A5B",
"V 	c #BA997A",
"W 	c #BB9A7A",
"X 	c #8A6C4D",
"Y 	c #302E32",
"Z 	c #2C2C32",
"` 	c #B99879",
" .	c #3D3025",
"..	c #433934",
"+.	c #22242E",
"@.	c #1B202C",
"#.	c #45311C",
"$.	c #47331E",
"%.	c #4F3822",
"&.	c #5E4329",
"*.	c #49331F",
"=.	c #6F5B3F",
"-.	c #523A23",
";.	c #694C2F",
">.	c #897563",
",.	c #5B4128",
"'.	c #58504A",
").	c #543D24",
"!.	c #6E5032",
"~.	c #4B351F",
"{.	c #B99777",
"].	c #524A46",
"^.	c #573E26",
"/.	c #826F5F",
"(.	c #4D3E33",
"_.	c #0B0C13",
":.	c #0D0E15",
"<.	c #423E40",
"[.	c #A1876F",
"}.	c #0B0C13",
"|.	c #635851",
"1.	c #64492C",
"2.	c #62462B",
"3.	c #513E28",
"4.	c #0B0C13",
"5.	c #0B0C13",
"6.	c #7B6A5C",
"7.	c #6B4E31",
"8.	c #927B66",
"9.	c #BC9A7B",
"0.	c #4D3721",
"a.	c #715133",
"b.	c #5C452F",
"c.	c #0B0C13",
"d.	c #574E4A",
"e.	c #BE9D7C",
"f.	c #C3A282",
"g.	c #C7A483",
"h.	c #CBA783",
"i.	c #C29F7E",
"j.	c #685A51",
"k.	c #D0AC88",
"l.	c #DDB790",
"m.	c #E4BD94",
"n.	c #E9C197",
"o.	c #EBC399",
"p.	c #ECC399",
"q.	c #EBC298",
"r.	c #E7BF96",
"s.	c #E1BA93",
"t.	c #D6B18C",
"u.	c #786759",
"v.	c #D9B48E",
"w.	c #EDC49A",
"x.	c #D3AF8A",
"y.	c #B99A7A",
"z.	c #39373B",
"A.	c #DFB891",
"B.	c #EEC59A",
"C.	c #3F3B3D",
"D.	c #534B48",
"E.	c #77675B",
"F.	c #887564",
"G.	c #937E6A",
"H.	c #A68D75",
"I.	c #B0957A",
"J.	c #B5997D",
"K.	c #AB9177",
"L.	c #8D7967",
"M.	c #806E60",
"N.	c #60554F",
"O.	c #504946",
"P.	c #9A826A",
"Q.	c #6D6056",
"R.	c #EFC69B",
"S.	c #C8A887",
"T.	c #756559",
"U.	c #3E3B3D",
"V.	c #433F40",
"W.	c #60554E",
"X.	c #5D534D",
"Y.	c #AA8D72",
"Z.	c #CDA986",
"`.	c #56432D",
" +	c #655951",
".+	c #4D4644",
"++	c #DBB58F",
"@+	c #454040",
"#+	c #674B2D",
"$+	c #4C4543",
"%+	c #564D49",
"&+	c #99836D",
"*+	c #827260",
"=+	c #BD9F81",
"-+	c #3B383C",
";+	c #BA9C7F",
">+	c #716256",
",+	c #655A4F",
"'+	c #C19C77",
")+	c #B5AB87",
"!+	c #C6B6A3",
"~+	c #D1C3B1",
"{+	c #CABBA9",
"]+	c #B5A999",
"^+	c #D4C9B8",
"/+	c #FDF7ED",
"(+	c #FBF5EB",
"_+	c #F7F1E7",
":+	c #E6DDD0",
"<+	c #3A2B11",
"[+	c #241801",
"}+	c #EFE8DC",
"|+	c #33250A",
"1+	c #A09585",
"2+	c #463214",
"3+	c #3F3319",
"4+	c #DED6C9",
"5+	c #706154",
"6+	c #271A02",
"7+	c #CDC5B7",
"8+	c #948979",
"9+	c #2C1F05",
"0+	c #D4CCBF",
"a+	c #C0B7A9",
"b+	c #8A826D",
"c+	c #7B695B",
"d+	c #4A4443",
"e+	c #63533B",
"f+	c #CABEAE",
"g+	c #442F1B",
"h+	c #7F654B",
"i+	c #8D8358",
"j+	c #C2BD84",
"k+	c #B5B178",
"l+	c #9D956C",
"m+	c #847752",
"n+	c #766945",
"o+	c #C5C285",
"p+	c #C9C888",
"q+	c #CAC989",
"r+	c #CBCA8A",
"s+	c #AAA36E",
"t+	c #958A5E",
"u+	c #C8C787",
"v+	c #A39C6D",
"w+	c #C6C486",
"x+	c #C9C699",
"y+	c #D7D6A1",
"z+	c #E8E8B4",
"A+	c #EAEAB6",
"B+	c #ECEDB8",
"C+	c #AAA17A",
"D+	c #BFB683",
"E+	c #E0E0AC",
"F+	c #D1D094",
"G+	c #BDA87E",
"                                                                                                                      /                                         ",
"                                                                                                                    / ^ ;                                       ",
"                                                                                                                    ; ^ ^ 6                                     ",
"                                                                                                                    > ^ ^ >                                     ",
"                                                                                                                    > ^ ^ ^ 6                                   ",
"                                                                                  F m v u t k                       > ^ ^ ^ ;                                   ",
"                                                                            o A u v v v v v v t o                   > ^ ^ ^ )                                   ",
"                                                                          l I M T S S N L v v v u k                 > ^ ^ ^ ^  .                                ",
"                                                                        t X P V V V V V {.U v v v v l               > ^ ^ ^ ^ /                                 ",
"                                                                      v T ` V V V V V V V ` U v v v v F             > ^ ^ ^ ^ >                                 ",
"                                                                    =.S V V V V V V V V V V {.L v v v v k           ; ^ ^ ^ ^ ^                                 ",
"                                                                  =.P V V V V V V V V V V Q Q S I v v v n           ; ^ ,.~.^ ^ 6                               ",
"                                                                  [.V V V V V V V V V V Q R V V U v v v v A         / ^ 2.1.^ ^  .                              ",
"                                                                  ` V V V V V V V V V Q {.V V V P I v v v v x        .^ 1.B *.^ /                               ",
"                                                                P.V V V V W e.W V V P {.V V V V V M v v v v m         ! !.u %.^ /   A                           ",
"                                                                [.V V i.++n.p.n.++i.Q V V V V V V O v v v v v k       ~.u v -.^ ; F u                           ",
"                      Y.g.k.v.++++v.x.S.`                       [.V f.n.w.w.w.w.w.s.++e.V V V V V R I v v v v B       b.v v -.^ ~.n m                           ",
"                  f.s.w.w.w.w.w.w.w.w.w.w.o.A.=+                Y.e.r.w.w.w.w.w.m.n.w.m.i.V V V V ` K v v v v v k     n v v %.^ 2.v t F k                       ",
"              g.n.w.m.k.f.R     ;+g.x.r.w.w.w.w.i.              O v.w.w.w.w.w.w.s.w.w.w.n.g.V V V V L v v v v v A o B v v u %.2.u v v v v v t o                 ",
"            A.w.s.=+                    R l.w.w.n.              Y.o.w.w.w.w.w.w.s.w.w.w.w.n.g.V V V N v v v v v n m v v v v u v v v v v v v v u b.              ",
"        Y.r.p.k.                            ++w.w.x.            f.w.w.w.w.w.w.q.m.w.w.w.w.w.n.i.V V R K v v v v u m v v u u v v v v v v v v v v u x             ",
"      Y.r.o.f.                                p.w.q.            g.w.w.w.w.w.w.n.r.w.w.w.w.w.w.m.e.V V O I v v v v n v 1.~.0.2.u v v v v v v v v v n             ",
"      m.n.;+                                  l.w.w.e.            w.w.w.w.w.w.n.r.w.w.w.w.w.w.w.s.W V V T I v v v v ;.%.#+a.!.7.v v v v v v v v v v l           ",
"    x.r.P                                     t.w.w.g.            m.w.w.w.w.w.p.m.w.w.w.w.w.w.w.w.v.V V ` M v v v u 2.n v v v v v v v v v v v v v v u           ",
"  I.n.P                                       v.w.w.h.            S.w.w.w.w.w.w.s.w.w.w.w.w.w.w.w.p.Z.V N v v v v n u v v v v v v v v v v v v v v v v F         ",
"  ++`                                         r.w.w.g.              o.w.w.w.w.w.s.w.w.w.w.w.w.w.w.w.q.9.J v v v v v v v v v v v v v v v v v v v v v v B         ",
"  x.                                        I.w.w.w.e.              k.w.w.w.w.w.m.q.w.w.w.w.w.w.w.w.w.{.v v v v v v v v u u v v v v v v v v v v v v v v o       ",
"g.                                          x.w.w.o.                  r.w.w.w.w.p.s.w.w.w.w.w.w.w.w.w.U K v v v v v 7.]+:+4+&+v v v v v v v v v v v v v k       ",
"y.                                          n.w.w.t.                  y.p.w.w.w.w.m.p.w.w.w.w.w.w.w.p.g.N v v v v !.|+]+(+(+1+1.v v v v v v v v v v v v l       ",
"I.                                        Z.w.w.m.                      g.w.w.w.w.q.m.w.w.w.w.w.w.w.w.w.M v v v v ~.6+ .1+1+6 <+v v v v v v v v v v v v t       ",
"[.                                        q.w.q.I.                        g.p.w.w.w.s.p.w.w.w.w.w.w.w.w.M v v v v <+6+6+6+6+6+6+a.v v v v v v v v v v v v x     ",
"6.                                      ++w.w.f.                            ;+r.w.w.w.w.w.w.w.w.w.w.w.w.U v v v v e+6 6+6+6+6+9+B v v v v v v v v v v v v t     ",
"Q.                                    k.w.w.x.                                  x.p.w.w.w.w.w.w.w.w.w.w.O v v v v !+:+s 6+9+8+T.v v v v v v v v v v v v v v A   ",
"                                    e.w.w.m.                                        t.p.w.w.w.w.w.r.h.U b.u v v v K 4+1+6+*+:+>.v v v v v v v v v v v v v v v F ",
"                                    n.w.p.R                                             W {.{.O X b.^ ^ ^ 2.v v v v J =.%.k h+v v v v v v v v v v v v L '+++l.=.",
"                                  l.w.w.k.                                                1.7.7.1.,.~.^ ^ $.;.v v v v v v v v v v v v v v v v v v v v '+w.w.l.k ",
"                                S.w.w.r.                                            x l u v v v v v n 1.~.^ *.;.v v v v v v v v v v v v v v v v v v v K Z.w.{.; ",
"                              K.o.w.w.f.                              k F l A t B v v v v v v v v v v v a.-.^ $.2.u v v v v v v v v v v v v v v v v n 1.#+W =./ ",
"                              A.w.w.r.                          F t v v v v v v v v v v v v v v v v v v v n ).^ ^ -.7.u v v v v v v v v v v v v v B -.^ ^ ! )   ",
"                            g.w.w.w.Z.                      F u v v v v v v v v v v v v v v v v v v v v v v n -.^ ^ ^ %.2.a.u v v v v v v v v v !.%.^ ^ ^ ^  .  ",
"                            n.w.w.w.K.                    t v v v v v v v v v v v v v v v v v v v v v v v v v a.~.^ ^ ^ ^ ^ 0.^.&.1.#+;.7.;.#+,.$.^ ^ ^ ^ /     ",
"                          x.w.w.w.n.                    t v v v v v v v v v v v v v v v v v v v v v v v v v v v #+^ ^ ^ ^ ^ ^ ^ ^ ^ ^ ! *.! ^ ^ ^ ^ ^ ^ /       ",
"                          n.w.w.w.m.                  F v v v v v v v v v v v v v v v v v v v v v v v v v v v v v ^.^ ^ ^ ^ ^ ^ ^ ^ ^ b+1+^ ^ ^ ^ ^ ^  .        ",
"                        P w.w.w.w.m.                  u v v v v v v v v v v v v u v v v v v v v v v v v v v v v v a.*.^ ^ ^ ^ ^ ^ ^ ,+:+6.^ ^ ^ ^ > 6           ",
"                        f.w.w.w.w.s.                F v v v v v v v v v v v v v m a.a.n v v v v v v v v v v v v v v 1.) ) ~.! ^ ^ ^ T.Q.^ ^ ) ; 6               ",
"                      8.h.w.w.w.w.m.                ;.v v v v v v v v v v v v v v v v B B v v v v v v v v v v v v v v ,.e+D+k+l+e+/ / /  .                      ",
"                      [.h.w.w.w.w.r.                1.v v v v v v v v v v v v v v v v v n B v v v v v v v v v v v v v B s+p+u+i+                                ",
"                      [.f.w.w.w.w.n.                &.v v v v v v v v v v v v v v v v v v !.u v v v v u u v v v v v v v l+p+t+!  .                              ",
"                      [.e.o.w.w.w.w.               .).v v v v v v v v v v v v v v v v v v ;.;.v v n v a.7.v v v v v v v m+D+3.^ >                               ",
"                      P.V s.w.w.w.w.g.            / *.n v v v v v v v v v v v v v v v v v 1.).v v K K !.&.v v v v v v v I i+^ ^ ^  .                            ",
"                        V k.w.w.w.w.l.            / ^ 7.v v v v v v v v v v v v v v v v v &.$.t+y+z+E+l+).u v v v v v v v ).^ ^ ^ ;                             ",
"                        ` 9.r.w.w.w.w.W           / ^ &.v v v v v v v v v v v v v v v v v ).! x+A+A+A+z+l+;.v v v v v v v 2.^ ^ ^ ^                             ",
"                        Y.V g.o.w.w.w.n.e.        h+^ ~.n v v v v v v v v v v v v v v v u ~.^ C+A+A+A+A+x+^.v v v v v v v !.^ ^ ^ ^ /                           ",
"                        8.V V Z.o.w.w.w.w.m.k.g.x.h.) ^ 2.v v v v v v v v v v v v v v v 7.^ ^ C+A+A+A+A+E+x !.v v v v v v u %.^ ^ ^ >                           ",
"                          P V V g.m.w.w.w.w.w.w.w.r.b.^ $.!.v v v v v v v v v v v v v v ^.^ ^ )+A+A+A+A+A+l+^.v v v v v v v 2.^ ^ ^ )                           ",
"                          >.V V V 9.k.m.w.w.w.o.s.k.h+^ ^ 0.a.v v v v v v v v v v v v 7.^ ^ ^ )+A+A+A+A+z+x+0.7.v v v v v v a.^ ^ ^ ^  .                        ",
"                            [.V V V V V f.Z.g.e.V V S %.^ ^ ~.;.u v v v v v v v v v !.~.^ ^ $.k+F+y+y+F+q+p+i+%.n v v v v v v ).^ ^ ^ /                         ",
"                              [.V V V V V V V V V V V M ^ ^ ^ ^ -.1.a.n n n u n a.&.*.^ ^ ^ `.o+p+p+p+p+p+p+k+> ,.v v v v v v #+^ ^ ^ >                         ",
"                                P.{.V V V V V V V V V ` h+^ ^ ^ ^ ^ ^ *.~.~.~.*.^ ^ ^ ^ ^ ^ i+p+p+p+p+p+p+j+  6 ^ 1.v v v v v n ~.^ ^ ^ ;                       ",
"                                    [.` V V V V V V V V P x ^ ^ ^ ^ ^ ^ ^ ^ ^ ^ ^ ^ ^ ^ ^ b.j+p+p+p+p+p+o+K.>.   .^ 1.v v v v v 1.^ ^ ^ ^ >                     ",
"                                        [.Y.Y.Y.[.P.8.      h+3.^ ^ ^ ^ ^ ^ ^ ^ ^ ^ ^ ^ 3.s+p+p+p+p+u+D+W V V [.  / ^ &.u v v v v 2.^ ^ ^ ^ /                   ",
"                                                            ` P M k $.^ ^ ^ ^ ^ ^ ^ *.n+k+p+p+u+w+D+G+V V V V V >.  / ^ -.!.v u u u &.! ^ ^ ;                   ",
"                                                            P V V {.O U h+=.=.J X N i.v.s.l.I.*+  8.G.P.P.[.[.>.      / ^ ^ ^.7.a.m u b.  6                     ",
"                                                              [.R V V V V V V V h.q.n.s.m.p.p.x.                        6 > ^ ! 0.,.A                           ",
"                                                                  8.Y.` V V V V i.n.w.w.p.s.w.s.Z.                             ./ 6                             ",
"                                                                        P.Y.Q ` V e.k.x.h.e.g.;+                                                                ",
"                                                                                8.P.[.[.[.G.                                                                    "};
