/* XPM */
static char * number_1_xpm[] = {
"20 36 249 2",
"  	c None",
". 	c #000000",
"+ 	c #000000",
"@ 	c #000000",
"# 	c #000000",
"$ 	c #000000",
"% 	c #000000",
"& 	c #000000",
"* 	c #000000",
"= 	c #000000",
"- 	c #000000",
"; 	c #000000",
"> 	c #000000",
", 	c #000000",
"' 	c #000000",
") 	c #000000",
"! 	c #000000",
"~ 	c #000000",
"{ 	c #000000",
"] 	c #000000",
"^ 	c #000000",
"/ 	c #000000",
"( 	c #000000",
"_ 	c #000000",
": 	c #000000",
"< 	c #000000",
"[ 	c #000000",
"} 	c #000000",
"| 	c #000000",
"1 	c #000000",
"2 	c #000000",
"3 	c #000000",
"4 	c #000000",
"5 	c #000000",
"6 	c #000000",
"7 	c #000000",
"8 	c #000000",
"9 	c #000000",
"0 	c #000000",
"a 	c #000000",
"b 	c #000000",
"c 	c #000000",
"d 	c #000000",
"e 	c #000000",
"f 	c #000000",
"g 	c #000000",
"h 	c #000000",
"i 	c #000000",
"j 	c #000000",
"k 	c #000000",
"l 	c #000000",
"m 	c #000000",
"n 	c #000000",
"o 	c #000000",
"p 	c #000000",
"q 	c #000000",
"r 	c #000000",
"s 	c #000000",
"t 	c #000000",
"u 	c #000000",
"v 	c #000000",
"w 	c #000000",
"x 	c #000000",
"y 	c #000000",
"z 	c #000000",
"A 	c #000000",
"B 	c #000000",
"C 	c #000000",
"D 	c #000000",
"E 	c #000000",
"F 	c #000000",
"G 	c #000000",
"H 	c #000000",
"I 	c #000000",
"J 	c #000000",
"K 	c #000000",
"L 	c #000000",
"M 	c #000000",
"N 	c #000000",
"O 	c #000000",
"P 	c #000000",
"Q 	c #000000",
"R 	c #000000",
"S 	c #000000",
"T 	c #000000",
"U 	c #000000",
"V 	c #000000",
"W 	c #000000",
"X 	c #000000",
"Y 	c #000000",
"Z 	c #000000",
"` 	c #000000",
" .	c #000000",
"..	c #000000",
"+.	c #000000",
"@.	c #000000",
"#.	c #000000",
"$.	c #000000",
"%.	c #000000",
"&.	c #000000",
"*.	c #000000",
"=.	c #000000",
"-.	c #000000",
";.	c #000000",
">.	c #000000",
",.	c #000000",
"'.	c #000000",
").	c #000000",
"!.	c #000000",
"~.	c #000000",
"{.	c #000000",
"].	c #000000",
"^.	c #000000",
"/.	c #000000",
"(.	c #000000",
"_.	c #000000",
":.	c #000000",
"<.	c #000000",
"[.	c #000000",
"}.	c #000000",
"|.	c #000000",
"1.	c #000000",
"2.	c #000000",
"3.	c #000000",
"4.	c #000000",
"5.	c #000000",
"6.	c #000000",
"7.	c #000000",
"8.	c #000000",
"9.	c #000000",
"0.	c #000000",
"a.	c #000000",
"b.	c #000000",
"c.	c #000000",
"d.	c #000000",
"e.	c #000000",
"f.	c #000000",
"g.	c #000000",
"h.	c #000000",
"i.	c #000000",
"j.	c #000000",
"k.	c #000000",
"l.	c #000000",
"m.	c #000000",
"n.	c #000000",
"o.	c #000000",
"p.	c #000000",
"q.	c #000000",
"r.	c #000000",
"s.	c #000000",
"t.	c #000000",
"u.	c #000000",
"v.	c #000000",
"w.	c #000000",
"x.	c #000000",
"y.	c #000000",
"z.	c #000000",
"A.	c #000000",
"B.	c #000000",
"C.	c #000000",
"D.	c #000000",
"E.	c #000000",
"F.	c #000000",
"G.	c #000000",
"H.	c #000000",
"I.	c #000000",
"J.	c #000000",
"K.	c #000000",
"L.	c #000000",
"M.	c #000000",
"N.	c #000000",
"O.	c #000000",
"P.	c #000000",
"Q.	c #000000",
"R.	c #000000",
"S.	c #000000",
"T.	c #000000",
"U.	c #000000",
"V.	c #000000",
"W.	c #000000",
"X.	c #000000",
"Y.	c #000000",
"Z.	c #000000",
"`.	c #000000",
" +	c #000000",
".+	c #000000",
"++	c #000000",
"@+	c #000000",
"#+	c #000000",
"$+	c #000000",
"%+	c #000000",
"&+	c #000000",
"*+	c #000000",
"=+	c #000000",
"-+	c #000000",
";+	c #000000",
">+	c #000000",
",+	c #000000",
"'+	c #000000",
")+	c #000000",
"!+	c #000000",
"~+	c #000000",
"{+	c #000000",
"]+	c #000000",
"^+	c #000000",
"/+	c #000000",
"(+	c #000000",
"_+	c #000000",
":+	c #000000",
"<+	c #000000",
"[+	c #000000",
"}+	c #000000",
"|+	c #000000",
"1+	c #000000",
"2+	c #000000",
"3+	c #000000",
"4+	c #000000",
"5+	c #000000",
"6+	c #000000",
"7+	c #000000",
"8+	c #000000",
"9+	c #000000",
"0+	c #000000",
"a+	c #000000",
"b+	c #000000",
"c+	c #000000",
"d+	c #000000",
"e+	c #000000",
"f+	c #000000",
"g+	c #000000",
"h+	c #000000",
"i+	c #000000",
"j+	c #000000",
"k+	c #000000",
"l+	c #000000",
"m+	c #000000",
"n+	c #000000",
"o+	c #000000",
"p+	c #000000",
"q+	c #000000",
"r+	c #000000",
"s+	c #000000",
"t+	c #000000",
"u+	c #000000",
"v+	c #000000",
"w+	c #000000",
"x+	c #000000",
"y+	c #000000",
"z+	c #FFFFFF",
"                                        ",
"                                        ",
"                        .               ",
"                    . . .               ",
"                  . . . .               ",
"                . . . . .               ",
"            . . . . . . .               ",
"          . . . . . . . .               ",
"                . . . . .               ",
"                . . . . .               ",
"                . . . . .               ",
"                . . . . .               ",
"                . . . . .               ",
"                . . . . .               ",
"                . . . . .               ",
"                . . . . .               ",
"                . . . . .               ",
"                . . . . .               ",
"                . . . . .               ",
"                . . . . .               ",
"                . . . . .               ",
"                . . . . .               ",
"                . . . . .               ",
"                . . . . .               ",
"                . . . . .               ",
"                . . . . .               ",
"                . . . . .               ",
"                . . . . .               ",
"                . . . . .               ",
"                . . . . .               ",
"                . . . . .               ",
"                . . . . .               ",
"                . . . . .               ",
"                . . . . .               ",
"              . . . . . . .             ",
"          . . . . . . . . . . .         "};

/* XPM */
static char * number_2_xpm[] = {
"20 36 7 1",
" 	c #FFFFFF",
".	c #040404",
"+	c #030303",
"@	c #010101",
"#	c #020202",
"$	c #000000",
"%	c #060606",
"       ..+@#+.      ",
"     +@@@@$@@@@@    ",
"    #@$$$$$$$$$$@   ",
"   #$$$$$$$$$$$$$#  ",
"  +@$$$$$@#@$$$$$$+ ",
"  @$$$$$@+%#@$$$$$@ ",
"  @$$$$@     @$$$$@.",
" #$$$$@       $$$$@+",
" @$$$$@       @$$$@+",
" @$$$$+       #$$$$@",
" #@@@@        #$$$$@",
"              +$$$@+",
"              @$$$@+",
"              $$$$@+",
"             #$$$$@ ",
"             @$$$$@ ",
"            @$$$$$+ ",
"           #@$$$$@  ",
"          +@$$$$@   ",
"         #@$$$$$#   ",
"        #@$$$$$#    ",
"        @$$$$$@     ",
"       #$$$$$@      ",
"      #@$$$$@#      ",
"     #@$$$$@+       ",
"    #$$$$$$+        ",
"    @$$$$$#         ",
"   @$$$$$#          ",
"  +@$$$$@+          ",
"  @$$$$$@@          ",
" +$$$$$$$$$$$$$$$$$$",
" @$$$$$$$$$$$$$$$$$$",
" @$$$$$$$$$$$$$$$$$$",
".@$$$$$$$$$$$$$$$$$$",
"+@$$$$$$$$$$$$$$$$$$",
"+@$$$$$$$$$$$$$$$$$$"};

/* XPM */
static char * number_3_xpm[] = {
"20 36 2 1",
" 	c #FFFFFF",
".	c #000000",
"       ......       ",
"     ..........     ",
"   .............    ",
"  ...............   ",
" .................  ",
" .................  ",
"..................  ",
"................... ",
"  ......  ......... ",
"   ....    ........ ",
"    ..      ....... ",
"            ....... ",
"           ........ ",
"           .......  ",
"      ............  ",
"      ............  ",
"      ...........   ",
"      ...........   ",
"      ............  ",
"      ............. ",
"      ............. ",
"           .........",
"            ........",
"             .......",
"    .        .......",
"    ..       .......",
"   ....     ........",
"  ......  ..........",
" ...................",
"................... ",
"................... ",
" .................  ",
"  ...............   ",
"   ..............   ",
"    ...........     ",
"       ......       "};

/* XPM */
static char * number_4_xpm[] = {
"20 36 19 1",
" 	c #FFFFFF",
".	c #030303",
"+	c #000000",
"@	c #2B2B2B",
"#	c #060606",
"$	c #040404",
"%	c #080808",
"&	c #010101",
"*	c #050505",
"=	c #020202",
"-	c #070707",
";	c #090909",
">	c #0E0E0E",
",	c #0B0B0B",
"'	c #0C0C0C",
")	c #2A2A2A",
"!	c #0A0A0A",
"~	c #202020",
"{	c #282828",
"            .+++@   ",
"           #++++@   ",
"           $++++@   ",
"          %+++++@   ",
"          &+++++@   ",
"         *++++++@   ",
"         =++++++@   ",
"        *+++++++@   ",
"        =+++++++@   ",
"       *++++++++@   ",
"       +++&.++++@   ",
"      *+++#$++++@   ",
"     -&++& +++++@   ",
"     *+++- +++++@   ",
"    ;+++&  +++++@   ",
"    .+++%  +++++@   ",
"   >+++.   +++++@   ",
"   &+++.   +++++@   ",
"  ;+++&    +++++@   ",
"  =+++,    +++++@   ",
" ;+++=     +++++@   ",
" =+++'     +++++)   ",
"!+++=      +++++~   ",
"&+++++++++++++++.+++",
"++++++++++++++++++++",
"++++++++++++++++++++",
"++++++++++++++++++++",
"++++++++++++++++&+++",
"++++++++++++++++,+++",
"           +++++{   ",
"           +++++@   ",
"           +++++@   ",
"           +++++@   ",
"           +++++@   ",
"           +++++@   ",
"           +++++@   "};


/* XPM */
static char * number_5_xpm[] = {
"20 36 2 1",
" 	c #FFFFFF",
".	c #000000",
"                    ",
"     ..........     ",
"     ..........     ",
"     ..........     ",
"     ..........     ",
"     ..........     ",
"     ...            ",
"     ...            ",
"     ...            ",
"     ...            ",
"     ...            ",
"     ...            ",
"     .......        ",
"     ........       ",
"     .........      ",
"     ..........     ",
"     ..........     ",
"     ..    ....     ",
"            ....    ",
"            ....    ",
"             ...    ",
"             ...    ",
"             ...    ",
"             ...    ",
"             ...    ",
"             ...    ",
"             ...    ",
"            ....    ",
"    .       ....    ",
"    ..     ....     ",
"    ...........     ",
"    ...........     ",
"    ..........      ",
"    .........       ",
"     .......        ",
"                    "};

/* XPM */
static char * number_6_xpm[] = {
"20 36 2 1",
" 	c #FFFFFF",
".	c #000000",
"                    ",
"        ......      ",
"      .........     ",
"     ...........    ",
"    .............   ",
"   ...............  ",
"   ....... .......  ",
"  ......     .....  ",
"  ......     .....  ",
"  .....      .....  ",
"  .....             ",
"  .....             ",
" ......             ",
" ...... ......      ",
" ...............    ",
" ................   ",
" ................   ",
" .................  ",
" .......    ......  ",
" .......     .....  ",
" ......      ...... ",
" ......       ..... ",
" ......       ..... ",
" ......       ..... ",
" ......       ..... ",
"  .....       ..... ",
"  .....       ..... ",
"  ......     ...... ",
"  .......    .....  ",
"   ....... .......  ",
"   ...............  ",
"    .............   ",
"     ...........    ",
"      .........     ",
"       .......      ",
"                    "};

/* XPM */
static char * number_7_xpm[] = {
"20 36 2 1",
" 	c #FFFFFF",
".	c #000000",
"                    ",
"    ............    ",
"    ............    ",
"    ............    ",
"    ............    ",
"    ............    ",
"            ....    ",
"            ...     ",
"            ...     ",
"            ...     ",
"           ....     ",
"           ....     ",
"           ...      ",
"           ...      ",
"          ....      ",
"          ....      ",
"          ....      ",
"          ...       ",
"          ...       ",
"         ....       ",
"         ....       ",
"         ...        ",
"         ...        ",
"         ...        ",
"        ....        ",
"        ....        ",
"        ...         ",
"        ...         ",
"       ....         ",
"       ....         ",
"       ....         ",
"       ...          ",
"       ...          ",
"      ....          ",
"      ....          ",
"                    "};

/* XPM */
static char * number_8_xpm[] = {
"20 36 2 1",
" 	c #FFFFFF",
".	c #000000",
"                    ",
"       ......       ",
"      ........      ",
"     ..........     ",
"     ..........     ",
"    ............    ",
"    ....    ....    ",
"    ....    ....    ",
"    ...      ...    ",
"    ...      ...    ",
"    ...      ...    ",
"    ...      ...    ",
"    ...      ...    ",
"    ....    ....    ",
"     ....  ....     ",
"     ..........     ",
"      ........      ",
"      ........      ",
"     ..........     ",
"     ..........     ",
"    ....    ....    ",
"    ...      ...    ",
"    ...      ...    ",
"    ...      ...    ",
"    ...      ...    ",
"    ...      ...    ",
"    ...      ...    ",
"    ...      ...    ",
"    ...      ...    ",
"    ....    ....    ",
"    ............    ",
"     ..........     ",
"     ..........     ",
"      ........      ",
"       ......       ",
"                    "};

/* XPM */
static char * number_9_xpm[] = {
"20 36 29 1",
" 	c #FFFFFF",
".	c #2C2C2C",
"+	c #090909",
"@	c #010101",
"#	c #313131",
"$	c #000000",
"%	c #030303",
"&	c #1A1A1A",
"*	c #181818",
"=	c #242424",
"-	c #2D2D2D",
";	c #272727",
">	c #111111",
",	c #232323",
"'	c #292929",
")	c #1B1B1B",
"!	c #0A0A0A",
"~	c #0C0C0C",
"{	c #080808",
"]	c #1F1F1F",
"^	c #363636",
"/	c #1E1E1E",
"(	c #060606",
"_	c #101010",
":	c #141414",
"<	c #0B0B0B",
"[	c #191919",
"}	c #252525",
"|	c #121212",
"                    ",
"                    ",
"                    ",
"                    ",
"                    ",
"       .+@#         ",
"      @$$$$%        ",
"     %$$$$$$$       ",
"    &$$$$$$$$*      ",
"    =$$*  @$$$      ",
"    $$$    $$$=     ",
"    $$$    -$$;     ",
"   >$$-    ,$$$     ",
"   @$$$     $$$     ",
"   @$$$     $$$     ",
"   .$$'     $$$     ",
"    $$$    )$$$     ",
"    $$$!   $$$$     ",
"    =$$$~{$$$$$     ",
"     !$$$$$]$$$     ",
"      $$$$$^$$$     ",
"       *$/  $$$     ",
"            $$$     ",
"            $$$     ",
"     (_    *$$:     ",
"    $$$    ($$<     ",
"    !$$$  $$$$      ",
"    [$$$$$$$$}      ",
"     $$$$$$$$       ",
"      $$$$$$        ",
"       |{'_         ",
"                    ",
"                    ",
"                    ",
"                    ",
"                    "};

/* XPM */
static char * number_0_xpm[] = {
"20 36 2 1",
" 	c #FFFFFF",
".	c #000000",
"                    ",
"                    ",
"         ..         ",
"        .....       ",
"       .......      ",
"      ...  ...      ",
"      ...  ....     ",
"      ...   ...     ",
"     ....   ...     ",
"     ....   ...     ",
"     ....   ....    ",
"     ....   ....    ",
"     ...    ....    ",
"     ...    ....    ",
"     ...    ....    ",
"     ...    ....    ",
"    ....    ....    ",
"    ....    ....    ",
"    ....    ....    ",
"    ....    ....    ",
"    ....    ....    ",
"    ....    ....    ",
"     ...    ....    ",
"     ...    ....    ",
"     ...    ....    ",
"     ...    ....    ",
"     ....   ....    ",
"     ....   ....    ",
"     ....   ...     ",
"     ....   ...     ",
"      ...   ...     ",
"      ...  ....     ",
"      ...  ...      ",
"       .......      ",
"        .....       ",
"         ..         "};
