/* XPM */
static char * cursor_xpm[] = {
"20 20 3 1",
" 	c #FFFFFE",
".	c #F3F1F3",
"+	c #000000",
"    .               ",
"    ..              ",
"    .+.             ",
"    .++.            ",
"    .+++.           ",
"    .++++.          ",
"    .+++++.         ",
"    .++++++.        ",
"    .+++++++.       ",
"    .++++++++.      ",
"    .+++++++++.     ",
"    .++++++++++.    ",
"    .++++++.....    ",
"    .+++.++.        ",
"    .++. .++.       ",
"    .+.  .++.       ",
"    ..    .++.      ",
"          .++.      ",
"           ..       ",
"                    "
};

