/* XPM */
static char * big_plank_xpm[] = {
"189 10 675 2",
"  	c #FFFFFE",
". 	c #6F4927",
"+ 	c #714B28",
"@ 	c #724B28",
"# 	c #724C29",
"$ 	c #734C29",
"% 	c #734D29",
"& 	c #734D2A",
"* 	c #744E2A",
"= 	c #744E2B",
"- 	c #744F2C",
"; 	c #754F2C",
"> 	c #75502C",
", 	c #76502C",
"' 	c #76502D",
") 	c #77502D",
"! 	c #77512E",
"~ 	c #77522E",
"{ 	c #734F2D",
"] 	c #775534",
"^ 	c #8E6741",
"/ 	c #916942",
"( 	c #926943",
"_ 	c #926A43",
": 	c #926B44",
"< 	c #936B44",
"[ 	c #936C44",
"} 	c #946C45",
"| 	c #956D46",
"1 	c #966E46",
"2 	c #966E47",
"3 	c #976F47",
"4 	c #976F48",
"5 	c #987048",
"6 	c #987149",
"7 	c #997149",
"8 	c #99714A",
"9 	c #9A724A",
"0 	c #9A734B",
"a 	c #9B734B",
"b 	c #9B734C",
"c 	c #9B744C",
"d 	c #9C744C",
"e 	c #9C754C",
"f 	c #9B724B",
"g 	c #9B724A",
"h 	c #9A714A",
"i 	c #997049",
"j 	c #986F48",
"k 	c #906944",
"l 	c #84603D",
"m 	c #765434",
"n 	c #725030",
"o 	c #785432",
"p 	c #7A5533",
"q 	c #7A5532",
"r 	c #7A5432",
"s 	c #7A5431",
"t 	c #795431",
"u 	c #795331",
"v 	c #795330",
"w 	c #785230",
"x 	c #77512F",
"y 	c #76502E",
"z 	c #75502D",
"A 	c #754F2D",
"B 	c #744F2D",
"C 	c #744E2C",
"D 	c #734E2B",
"E 	c #734D2B",
"F 	c #724D2B",
"G 	c #724D2A",
"H 	c #724C2A",
"I 	c #714C2A",
"J 	c #714B2A",
"K 	c #714B29",
"L 	c #704B29",
"M 	c #704A29",
"N 	c #704A28",
"O 	c #6F4928",
"P 	c #6E4928",
"Q 	c #6E4827",
"R 	c #6D4826",
"S 	c #6C4725",
"T 	c #6C4625",
"U 	c #6B4625",
"V 	c #6A4524",
"W 	c #6A4423",
"X 	c #664222",
"Y 	c #624022",
"Z 	c #6B492A",
"` 	c #7E5634",
" .	c #865C38",
"..	c #855C38",
"+.	c #855B38",
"@.	c #845B38",
"#.	c #7C5534",
"$.	c #704A27",
"%.	c #8D5E32",
"&.	c #8D5F33",
"*.	c #8E5F33",
"=.	c #8E5F34",
"-.	c #8E6034",
";.	c #8F6035",
">.	c #906135",
",.	c #906136",
"'.	c #916236",
").	c #926237",
"!.	c #926337",
"~.	c #936438",
"{.	c #946538",
"].	c #946539",
"^.	c #946639",
"/.	c #906339",
"(.	c #966A3F",
"_.	c #A5784A",
":.	c #B28252",
"<.	c #B48353",
"[.	c #B48453",
"}.	c #B58554",
"|.	c #B68655",
"1.	c #B78756",
"2.	c #B88857",
"3.	c #B98957",
"4.	c #B98958",
"5.	c #BA8A59",
"6.	c #BB8B5A",
"7.	c #BB8C5A",
"8.	c #BC8C5B",
"9.	c #BC8D5B",
"0.	c #BD8D5B",
"a.	c #BD8E5C",
"b.	c #BE8E5C",
"c.	c #BE8F5D",
"d.	c #BF8F5D",
"e.	c #BF905E",
"f.	c #C0905E",
"g.	c #C0915E",
"h.	c #C0915F",
"i.	c #C1915F",
"j.	c #C1925F",
"k.	c #C19260",
"l.	c #C29260",
"m.	c #C29361",
"n.	c #C2915F",
"o.	c #C1905F",
"p.	c #C1905E",
"q.	c #C18F5E",
"r.	c #C08F5E",
"s.	c #C08F5D",
"t.	c #C08E5D",
"u.	c #BF8E5D",
"v.	c #BF8D5D",
"w.	c #BF8D5C",
"x.	c #BE8D5C",
"y.	c #BE8C5C",
"z.	c #BE8C5B",
"A.	c #BD8C5B",
"B.	c #BD8B5B",
"C.	c #BD8B5A",
"D.	c #BC8A5A",
"E.	c #BC8A59",
"F.	c #BB8959",
"G.	c #B58455",
"H.	c #AA7C4F",
"I.	c #A1744A",
"J.	c #996D43",
"K.	c #93673E",
"L.	c #93663C",
"M.	c #96683E",
"N.	c #97693E",
"O.	c #96683D",
"P.	c #96673D",
"Q.	c #96673C",
"R.	c #95673C",
"S.	c #95663C",
"T.	c #95663B",
"U.	c #94663B",
"V.	c #94653B",
"W.	c #94653A",
"X.	c #93653A",
"Y.	c #93643A",
"Z.	c #926439",
"`.	c #926339",
" +	c #916338",
".+	c #916238",
"++	c #916237",
"@+	c #906137",
"#+	c #8F6037",
"$+	c #8F6036",
"%+	c #8E5F36",
"&+	c #8E5F35",
"*+	c #8D5F35",
"=+	c #8D5E34",
"-+	c #8C5E33",
";+	c #8C5D33",
">+	c #8B5D33",
",+	c #8B5C32",
"'+	c #8A5C32",
")+	c #8A5B32",
"!+	c #895B31",
"~+	c #895A31",
"{+	c #885A31",
"]+	c #885930",
"^+	c #875930",
"/+	c #875830",
"(+	c #86582F",
"_+	c #85572E",
":+	c #85572D",
"<+	c #83562C",
"[+	c #7F542C",
"}+	c #81562F",
"|+	c #875C35",
"1+	c #8F623B",
"2+	c #996940",
"3+	c #A37045",
"4+	c #A77347",
"5+	c #A67246",
"6+	c #A57146",
"7+	c #87603B",
"8+	c #8C5D31",
"9+	c #8C5D32",
"0+	c #8C5E32",
"a+	c #8E5E33",
"b+	c #8F5F34",
"c+	c #8F6034",
"d+	c #906034",
"e+	c #906134",
"f+	c #916135",
"g+	c #916235",
"h+	c #936337",
"i+	c #936437",
"j+	c #8F6136",
"k+	c #91653B",
"l+	c #9D7045",
"m+	c #AC7D4E",
"n+	c #B28251",
"o+	c #AF7F50",
"p+	c #A7794C",
"q+	c #A87A4C",
"r+	c #A87B4D",
"s+	c #A97B4E",
"t+	c #A97C4E",
"u+	c #AA7D4F",
"v+	c #B78856",
"w+	c #B88856",
"x+	c #B88957",
"y+	c #BA8A58",
"z+	c #BA8B59",
"A+	c #BD8F5C",
"B+	c #BE905D",
"C+	c #BE905E",
"D+	c #BF915E",
"E+	c #C0925F",
"F+	c #C19360",
"G+	c #C19460",
"H+	c #C29461",
"I+	c #C29462",
"J+	c #C29360",
"K+	c #BF8F5E",
"L+	c #BF8E5C",
"M+	c #BE8D5B",
"N+	c #BC8B5B",
"O+	c #BC8B5A",
"P+	c #BB8A5A",
"Q+	c #BB8958",
"R+	c #BA8858",
"S+	c #B78556",
"T+	c #B08052",
"U+	c #A6784C",
"V+	c #9E7046",
"W+	c #966940",
"X+	c #91653C",
"Y+	c #91643A",
"Z+	c #936539",
"`+	c #936439",
" @	c #926338",
".@	c #8F5F35",
"+@	c #8D5D34",
"@@	c #8C5D34",
"#@	c #8C5C33",
"$@	c #8A5C31",
"%@	c #885A30",
"&@	c #88592F",
"*@	c #87592F",
"=@	c #82552D",
"-@	c #81552E",
";@	c #835831",
">@	c #8A5E37",
",@	c #91643C",
"'@	c #986A40",
")@	c #A17045",
"!@	c #A67348",
"~@	c #A77448",
"{@	c #8A623C",
"]@	c #6F4825",
"^@	c #8B5B30",
"/@	c #8B5C30",
"(@	c #8B5C31",
"_@	c #8D5E33",
":@	c #8F5F33",
"<@	c #8C5F35",
"[@	c #9B6E43",
"}@	c #A7784B",
"|@	c #AE7E4E",
"1@	c #AF7F4F",
"2@	c #B07F4F",
"3@	c #B08050",
"4@	c #B18150",
"5@	c #B18151",
"6@	c #B38352",
"7@	c #B48454",
"8@	c #B68756",
"9@	c #B98A58",
"0@	c #B98A59",
"a@	c #BE8F5C",
"b@	c #BF905D",
"c@	c #BB8A59",
"d@	c #B98757",
"e@	c #B88656",
"f@	c #B78555",
"g@	c #B68455",
"h@	c #B58454",
"i@	c #B28153",
"j@	c #AC7D50",
"k@	c #A3764A",
"l@	c #966A40",
"m@	c #90643B",
"n@	c #8E6138",
"o@	c #8E6036",
"p@	c #906237",
"q@	c #8E5E34",
"r@	c #8A5B31",
"s@	c #895A30",
"t@	c #84572E",
"u@	c #82562E",
"v@	c #835830",
"w@	c #865B33",
"x@	c #8B5F37",
"y@	c #91633B",
"z@	c #96683F",
"A@	c #9E6E43",
"B@	c #A47246",
"C@	c #A77548",
"D@	c #9A6B42",
"E@	c #89613B",
"F@	c #6C4523",
"G@	c #88582D",
"H@	c #89592E",
"I@	c #8A5A2F",
"J@	c #8C5C31",
"K@	c #885C33",
"L@	c #8D6238",
"M@	c #96693F",
"N@	c #A07246",
"O@	c #A97A4B",
"P@	c #AC7C4D",
"Q@	c #AD7C4D",
"R@	c #AD7D4D",
"S@	c #AE7D4E",
"T@	c #AF7E4F",
"U@	c #B07F50",
"V@	c #B18050",
"W@	c #AA7B4D",
"X@	c #A5784B",
"Y@	c #A6784B",
"Z@	c #A87A4D",
"`@	c #B38252",
" #	c #B68554",
".#	c #B68555",
"+#	c #B78655",
"@#	c #B78656",
"##	c #B88756",
"$#	c #B88757",
"%#	c #B98857",
"&#	c #B98858",
"*#	c #BA8958",
"=#	c #BA8959",
"-#	c #B98758",
";#	c #B88657",
">#	c #B68454",
",#	c #B58354",
"'#	c #B58353",
")#	c #B48252",
"!#	c #B38152",
"~#	c #B38151",
"{#	c #B28051",
"]#	c #B17F50",
"^#	c #AD7C4E",
"/#	c #A9794B",
"(#	c #A17247",
"_#	c #9A6C42",
":#	c #95683E",
"<#	c #91643B",
"[#	c #8C5F37",
"}#	c #895D35",
"|#	c #885B34",
"1#	c #885B32",
"2#	c #875A32",
"3#	c #875931",
"4#	c #865930",
"5#	c #855930",
"6#	c #855931",
"7#	c #855A32",
"8#	c #855A33",
"9#	c #885C35",
"0#	c #8D6139",
"a#	c #92643C",
"b#	c #94663E",
"c#	c #996B41",
"d#	c #9F6F44",
"e#	c #A37246",
"f#	c #A67447",
"g#	c #A87548",
"h#	c #A67347",
"i#	c #89603B",
"j#	c #7B5634",
"k#	c #845930",
"l#	c #81552C",
"m#	c #81542B",
"n#	c #84582F",
"o#	c #845830",
"p#	c #895C34",
"q#	c #8D6038",
"r#	c #9A6C41",
"s#	c #A27346",
"t#	c #A9774A",
"u#	c #AB794B",
"v#	c #AB7A4B",
"w#	c #AC7A4C",
"x#	c #AC7B4C",
"y#	c #AF7D4E",
"z#	c #B07E4F",
"A#	c #AE7D4F",
"B#	c #AC7C4E",
"C#	c #A4764A",
"D#	c #A37549",
"E#	c #9F7247",
"F#	c #9D7046",
"G#	c #9B6E44",
"H#	c #986B42",
"I#	c #986B41",
"J#	c #90653B",
"K#	c #92663D",
"L#	c #93683F",
"M#	c #956940",
"N#	c #966A41",
"O#	c #986C42",
"P#	c #9A6D43",
"Q#	c #9B6F44",
"R#	c #9E7146",
"S#	c #A07348",
"T#	c #A27549",
"U#	c #A3754A",
"V#	c #A5784C",
"W#	c #AF8052",
"X#	c #B28254",
"Y#	c #B48455",
"Z#	c #B68556",
"`#	c #B88555",
" $	c #B78454",
".$	c #B68354",
"+$	c #B58253",
"@$	c #B48253",
"#$	c #B48152",
"$$	c #B38051",
"%$	c #B27F50",
"&$	c #B17E50",
"*$	c #B17E4F",
"=$	c #B07D4E",
"-$	c #AF7C4E",
";$	c #AE7C4D",
">$	c #AE7B4D",
",$	c #AD7B4C",
"'$	c #AD7A4C",
")$	c #AC794C",
"!$	c #AC794B",
"~$	c #AB784B",
"{$	c #AA784A",
"]$	c #A87649",
"^$	c #A57448",
"/$	c #A47247",
"($	c #A27246",
"_$	c #A27146",
":$	c #A47146",
"<$	c #9B6B42",
"[$	c #9D6D43",
"}$	c #A26F45",
"|$	c #9A6A41",
"1$	c #865A34",
"2$	c #6A4727",
"3$	c #875E39",
"4$	c #A87549",
"5$	c #A97649",
"6$	c #A97749",
"7$	c #A77648",
"8$	c #A57548",
"9$	c #9D6E44",
"0$	c #996B42",
"a$	c #93663D",
"b$	c #8F623A",
"c$	c #8C6038",
"d$	c #885C34",
"e$	c #875A31",
"f$	c #895B32",
"g$	c #8F6137",
"h$	c #906138",
"i$	c #906238",
"j$	c #8D6036",
"k$	c #8C5F36",
"l$	c #8B5E35",
"m$	c #8A5E36",
"n$	c #8D6138",
"o$	c #8C6139",
"p$	c #90643C",
"q$	c #94683F",
"r$	c #976A41",
"s$	c #9B6D44",
"t$	c #9C6F45",
"u$	c #A17348",
"v$	c #A47549",
"w$	c #A7774B",
"x$	c #AA794D",
"y$	c #AE7C4F",
"z$	c #B07D50",
"A$	c #B37F51",
"B$	c #B27E50",
"C$	c #B17D4F",
"D$	c #B07D4F",
"E$	c #B07C4E",
"F$	c #AF7B4D",
"G$	c #AE7A4D",
"H$	c #AE7A4C",
"I$	c #AD794C",
"J$	c #AD794B",
"K$	c #AC784B",
"L$	c #AB774A",
"M$	c #AA764A",
"N$	c #A97549",
"O$	c #A87448",
"P$	c #A77447",
"Q$	c #A67247",
"R$	c #A47045",
"S$	c #986941",
"T$	c #986840",
"U$	c #8D6039",
"V$	c #835832",
"W$	c #7C512B",
"X$	c #7C5029",
"Y$	c #7F522A",
"Z$	c #6B4523",
"`$	c #A57246",
" %	c #96673F",
".%	c #90633B",
"+%	c #8E6139",
"@%	c #895D36",
"#%	c #815730",
"$%	c #80542D",
"%%	c #81552D",
"&%	c #84562E",
"*%	c #87582F",
"=%	c #885931",
"-%	c #895A32",
";%	c #8A5B33",
">%	c #8A5C33",
",%	c #8B5C33",
"'%	c #8B5C34",
")%	c #8B5D34",
"!%	c #895B33",
"~%	c #865932",
"{%	c #855932",
"]%	c #875B35",
"^%	c #885C36",
"/%	c #8D613A",
"(%	c #8F633B",
"_%	c #92653D",
":%	c #966840",
"<%	c #976941",
"[%	c #9C6D44",
"}%	c #9F6F45",
"|%	c #A47348",
"1%	c #A8754A",
"2%	c #AA774A",
"3%	c #AD784B",
"4%	c #AC774B",
"5%	c #AC774A",
"6%	c #AB764A",
"7%	c #AA7549",
"8%	c #A97449",
"9%	c #A97448",
"0%	c #A87348",
"a%	c #A77247",
"b%	c #8E613A",
"c%	c #825832",
"d%	c #7D5129",
"e%	c #694422",
"f%	c #845A38",
"g%	c #A47046",
"h%	c #A06E44",
"i%	c #95663E",
"j%	c #8F613A",
"k%	c #8A5D37",
"l%	c #845933",
"m%	c #7E542F",
"n%	c #7C512C",
"o%	c #7B5029",
"p%	c #7C5129",
"q%	c #80532A",
"r%	c #81532B",
"s%	c #82542C",
"t%	c #83542C",
"u%	c #83542D",
"v%	c #83552D",
"w%	c #84552D",
"x%	c #84552E",
"y%	c #85562E",
"z%	c #85572F",
"A%	c #86572F",
"B%	c #865730",
"C%	c #865830",
"D%	c #875831",
"E%	c #875932",
"F%	c #885932",
"G%	c #865831",
"H%	c #84562F",
"I%	c #82552E",
"J%	c #80542E",
"K%	c #815630",
"L%	c #815631",
"M%	c #895C36",
"N%	c #8C5F38",
"O%	c #94653E",
"P%	c #996941",
"Q%	c #9F6D44",
"R%	c #A87347",
"S%	c #A77246",
"T%	c #A67146",
"U%	c #A16E44",
"V%	c #93653D",
"W%	c #7D522C",
"X%	c #644020",
"Y%	c #835A37",
"Z%	c #805836",
"`%	c #7C5533",
" &	c #744F2F",
".&	c #69482A",
"+&	c #624224",
"@&	c #5F3E1F",
"#&	c #603E1F",
"$&	c #654121",
"%&	c #664221",
"&&	c #674221",
"*&	c #674322",
"=&	c #684322",
"-&	c #694322",
";&	c #694323",
">&	c #694423",
",&	c #6A4424",
"'&	c #6A4525",
")&	c #6B4525",
"!&	c #6B4626",
"~&	c #6C4626",
"{&	c #684323",
"]&	c #634021",
"^&	c #613F22",
"/&	c #644326",
"(&	c #6C492C",
"_&	c #775131",
":&	c #805735",
"<&	c #815836",
"[&	c #714D2E",
"}&	c #603F21",
"|&	c #654120",
"1&	c #664121",
"2&	c #5D3B1E",
"  . + @ # $ $ % & & * = = - ; ; > , ' ' ) ! ! ! ~ { ] ^ / ( _ _ : < < [ } } | | | 1 2 3 3 4 4 5 5 5 6 7 7 7 8 9 9 9 0 0 a a a a b b c c c d d d e e e e e e e e d d d d d d d d d d d d c c a a a a f g g 9 h h h h 7 7 i i j j j k l m n o p q r r s t u u u v w w w w x x x y y y z A A B B C C C D E F G H I I J K L M N O O P Q Q Q R R S S S T U V V V W X Y Z `  . ...+.+.+.+.@.#.  ",
"$.%.%.&.*.=.-.;.;.>.>.,.'.'.).!.!.~.~.{.].].^./.(._.:.<.[.}.}.|.|.1.1.2.2.3.4.4.5.5.6.6.7.8.9.0.a.a.b.c.c.d.e.e.f.g.h.h.i.i.j.k.k.l.l.l.m.m.m.m.m.m.m.m.m.m.m.m.m.m.m.m.m.m.l.l.l.l.n.n.i.i.o.o.p.p.q.r.r.s.t.u.u.v.w.x.y.z.A.B.C.D.E.F.G.H.I.J.K.L.M.N.M.O.O.P.Q.R.S.T.U.V.W.X.Y.Z.`.`. +.+++@+@+#+$+%+%+&+*+=+=+-+;+>+,+'+)+)+!+~+{+]+^+/+(+(+_+:+<+[+}+|+1+2+3+4+4+5+5+5+5+5+5+6+6+6+7+",
"$.8+9+0+%.a+*.*.b+c+d+e+f+f+g+'.!.h+i+i+j+k+l+m+n+o+p+q+r+s+t+t+u+|.1.v+w+x+3.y+y+z+z+z+7.9.9.9.a.A+c.B+C+C+D+D+D+E+E+E+F+F+G+G+H+H+H+H+H+I+I+I+I+I+I+I+H+H+H+H+m.m.J+J+J+J+l.k.k.k.j.i.i.i.o.o.o.f.K+d.d.d.u.L+x.x.M+M+A.A.N+O+O+P+P+F.F.Q+R+R+S+T+U+V+W+X+Y+U.U.U.U.W.Z+`+`+`+ @ @.+.+++++,.$+;.;..@&+=++@+@@@;+#@,+$@$@$@!+%@%@]+&@*@(+=@-@;@>@,@'@)@!@~@~@4+4+4+4+4+4+5+5+5+5+5+6+6+{@",
"]@^@/@/@(@8+9+%.%._@*.*.:@c+d+d+=.<@k+[@}@|@1@2@3@4@5@n+:.6@<.<.7@}.}.|.|.8@1.1.2.x+3.4.9@0@z+z+6.7.8.8.9.9.a.a.a.a@c.c.c.c.b@e.e.e.e.e.g.g.g.g.g.g.h.h.h.h.h.h.h.f.f.f.f.f.f.f.e.K+K+d.d.d.u.u.b.b.x.x.M+0.A.A.A.O+O+O+P+P+c@F.F.R+R+d@d@d@e@e@f@f@g@g@h@i@j@k@l+l@m@n@o@p@++++@+@+,.$+;..@&+q@=+=++@;+#@#@,+,+$@r@!+!+s@^+t@u@v@w@x@y@z@A@B@C@~@~@~@~@~@~@4+D@D@D@4+5+5+5+5+5+5+6+6+6+E@",
"F@G@H@H@I@I@I@^@^@(@J@(@%@K@L@M@N@O@P@P@P@Q@Q@R@S@|@T@T@U@U@V@W@X@Y@Z@`@6@<.<.h@h@ #.#.#+#+#@###$#$#%#%#&#&#*#4.=#=#5.5.5.5.5.P+6.O+8.8.8.8.8.A.A.A.A.A.A.A.A.A.A.A.A.A.A.A.A.A.B.C.C.C.O+O+O+D.D.D.c@F.F.F.F.R+R+R+R+-#d@d@;#e@e@S+S+f@g@g@>#,#'#'#<.)#`@!#~#{#{#V@]#^#/#(#_#:#<#[#}#|#1#2#3#3#4#4#4#5#5#6#7#8#9#[#0#a#b#c#d#e#f#g#~@f#h#h#h#~@4+4+4+4+4+4+5+5+5+5+5+6+6+6+6+6+6+6+6+6+i#",
"j#n@k#l#m#l#n#o#p#q#L.r#s#t#u#u#u#u#u#u#v#v#v#v#v#w#x#x#Q@Q@S@S@y#T@T@z#2@A#B#B#W@Y@C#D#E#F#l+G#H#I#M@K.X+X+m@m@m@m@m@J#k+X+X+X+X+X+K#K#K.L#M#N#O#P#G#Q#R#S#T#U#k@V#s+H.j@W#X#Y#Y#Z#$#d@d@d@d@d@;#e@e@e@e@e@`#f@f@f@ $>#>#>#.$'#'#+$@$)##$!#!#$${#{#%$%$&$*$z#=$y#-$;$>$,$'$'$)$!$~${$]$^$/$e#($_$_$_$e#/$h#~@~@~@~@~@~@~@4+4+4+4+4+:$<$<$<$[$5+5+5+6+6+6+6+6+6+6+6+6+6+6+6+6+6+}$|$1+1$2$",
"3$g#g#/$e#B@f#g#g#4$]$]$]$]$5$5$5$5$5$6$6$6$6$6$6$6$6$7$8$($9$0$M@a$b$c$d$K@e$e$1#f$>+=+=+=.&+&+&+&+&+&+$+$+$+$+$+$+$+$+g$g$@+@+@+@+@+@+@+@+@+@+@+h$h$i$i$i$i$i$p@p@@+g$j$k$k$l$m$c$n$o$p$K.q$r$s$t$V+u$v$w$x$y$z$&$$$$$A$A$A$%$%$B$B$*$C$C$D$E$E$-$F$>$G$H$I$I$J$K$K$L$L$M$M$5$N$g#O$P$4+4+4+4+4+h#h#Q$5+5+5+5+R$S$S$S$S$S$S$S$S$S$<$6+6+6+6+6+6+6+6+6+6+6+6+6+6+6+6+6+}$T$U$V$W$X$Y$Y$Z$",
"..5+5+5+5+5+5+5+5+Q$Q$Q$h#h#h#h#4+4+`$)@<$ %.%+%@%1$#%}+$%%%&%(+(+*%/+^+^+^+]+=%=%{+{+~+~+-%-%f$f$f$)+;%;%;%;%>%,%,%,%,%,%'%)%)%)%)%)%@@@@@@@@@@@@@@@@@@@@@@@@@@@@@@@@@@@@@@@@@@@@@@@@@@@@)%)%)%)%'%'%'%;%!%~%~%{%1$]%^%/%(%_%:%<%[%}%|%1%2%3%3%K$4%5%6%6%6%7%7%N$8%9%O$0%4+4+a%5+6+6+6+6+6+6+6+6+6+6+6+6+6+6+6+6+6+6+6+6+6+6+6+6+6+6+6+6+6+6+6+6+6+6+6+6+6+6+6+3+|$b%c%W$d%Y$Y$Y$Y$Y$Y$e%",
"f%6+6+6+6+6+6+6+6+6+g%h%<$i%j%k%l%m%n%o%p%Y$q%q%r%m#m#s%s%s%s%t%u%v%v%w%w%x%x%&%&%&%y%y%z%z%z%z%z%A%B%C%C%C%C%C%C%/+D%D%D%D%3#3#3#3#3#3#3#3#3#E%F%F%F%F%F%F%F%F%F%F%F%F%F%F%F%F%=%=%=%3#3#3#3#3#3#3#3#3#3#D%D%D%D%G%C%C%C%C%B%B%B%B%H%I%J%K%L%l%M%N%.%O%P%Q%g%a%0%R%a%a%S%T%6+6+6+6+6+6+6+6+6+6+6+6+6+6+6+6+6+6+6+6+6+6+6+6+6+6+6+6+6+6+6+6+6+6+6+6+6+6+6+U%V%]%W%X$Y$Y$Y$Y$Y$Y$Y$Y$Y$Y$X%",
"  Y%@.@.@.@.Z%`% &.&+&@&#&$&%&%&%&%&%&%&%&%&%&%&%&&&&&&&&&*&=&=&=&=&=&=&-&;&;&;&>&>&>&W ,&,&,&,&,&V V V '&)&)&)&)&)&)&)&U U !&!&!&!&!&!&!&!&!&~&~&~&~&~&~&~&~&~&~&~&~&~&~&~&~&~&~&~&~&~&~&~&~&~&!&!&!&!&!&!&!&!&!&U U )&)&)&)&)&)&)&'&V V V ,&,&,&,&,&W {&]&^&/&(&_&:&+.@.@.@.@.@.@.@.@.@.@.@.@.@.@.@.@.@.@.@.@.@.@.@.@.@.@.@.@.@.@.@.@.@.@.@.@.@.@.@.<&[&}&|&%&%&%&%&%&%&%&%&%&%&%&1&2&  "};
