/* XPM */
static char * block_xpm[] = {
"20 20 363 2",
"  	c #7D5A3A",
". 	c #936B46",
"+ 	c #956D48",
"@ 	c #99714B",
"# 	c #A07750",
"$ 	c #A67C54",
"% 	c #AB8057",
"& 	c #B3865C",
"* 	c #B88B5F",
"= 	c #BA8D60",
"- 	c #B98C60",
"; 	c #B6895D",
"> 	c #B08459",
", 	c #AB8056",
"' 	c #A87D53",
") 	c #A87C52",
"! 	c #A2774E",
"~ 	c #86623F",
"{ 	c #87603B",
"] 	c #885C33",
"^ 	c #9D7148",
"/ 	c #9E724A",
"( 	c #9F744C",
"_ 	c #A47850",
": 	c #AA7D54",
"< 	c #AA7E55",
"[ 	c #A87C54",
"} 	c #AC8057",
"| 	c #B18359",
"1 	c #B3855A",
"2 	c #B5875B",
"3 	c #B38559",
"4 	c #AA7D53",
"5 	c #A4774E",
"6 	c #9A6F47",
"7 	c #895C33",
"8 	c #89613D",
"9 	c #7A5432",
"0 	c #855C36",
"a 	c #92673F",
"b 	c #926740",
"c 	c #946A43",
"d 	c #A1764D",
"e 	c #AB7E53",
"f 	c #B38558",
"g 	c #B7885B",
"h 	c #B6875A",
"i 	c #B28458",
"j 	c #AF8156",
"k 	c #AD8054",
"l 	c #A2764D",
"m 	c #996E47",
"n 	c #916740",
"o 	c #865D37",
"p 	c #7C5734",
"q 	c #553C26",
"r 	c #5E4329",
"s 	c #6A4C30",
"t 	c #573A1E",
"u 	c #4A2F16",
"v 	c #442A13",
"w 	c #4A2E15",
"x 	c #55381C",
"y 	c #5C3E20",
"z 	c #452B14",
"A 	c #51341A",
"B 	c #5F3F21",
"C 	c #604022",
"D 	c #4E331A",
"E 	c #593B1D",
"F 	c #5D3E20",
"G 	c #5C4026",
"H 	c #62472E",
"I 	c #6C4C2F",
"J 	c #7A5837",
"K 	c #755331",
"L 	c #6B4B2C",
"M 	c #5E4024",
"N 	c #674627",
"O 	c #765332",
"P 	c #7E5A38",
"Q 	c #624327",
"R 	c #6E4D2E",
"S 	c #805C38",
"T 	c #835F3B",
"U 	c #6E4E30",
"V 	c #69492B",
"W 	c #7A5734",
"X 	c #7C5937",
"Y 	c #6B4D2F",
"Z 	c #6F4F31",
"` 	c #735538",
" .	c #775739",
"..	c #7C5838",
"+.	c #85603D",
"@.	c #795532",
"#.	c #775331",
"$.	c #5E3F21",
"%.	c #664323",
"&.	c #7D5835",
"*.	c #7D5935",
"=.	c #634224",
"-.	c #6F4C2C",
";.	c #805B37",
">.	c #86603B",
",.	c #6F4E2F",
"'.	c #6A492A",
").	c #7F5A35",
"!.	c #7E5936",
"~.	c #7D5A38",
"{.	c #7C5939",
"].	c #856342",
"^.	c #936E49",
"/.	c #8B6440",
"(.	c #8F6640",
"_.	c #7C5632",
":.	c #815A34",
"<.	c #674525",
"[.	c #6A4725",
"}.	c #845D37",
"|.	c #795330",
"1.	c #624021",
"2.	c #6F4B29",
"3.	c #815B36",
"4.	c #87603A",
"5.	c #704E2E",
"6.	c #6E4B2A",
"7.	c #76522F",
"8.	c #8E6641",
"9.	c #8D6643",
"0.	c #896645",
"a.	c #A77D54",
"b.	c #7D5630",
"c.	c #825932",
"d.	c #684523",
"e.	c #7C552F",
"f.	c #865D36",
"g.	c #704B27",
"h.	c #613E1E",
"i.	c #6E4926",
"j.	c #825B34",
"k.	c #865E37",
"l.	c #6B4829",
"m.	c #724D2A",
"n.	c #664322",
"o.	c #9F744A",
"p.	c #9E744D",
"q.	c #906C4B",
"r.	c #B3865A",
"s.	c #B58658",
"t.	c #9C6D43",
"u.	c #7B532D",
"v.	c #835930",
"w.	c #754F2A",
"x.	c #865B33",
"y.	c #865C34",
"z.	c #66401C",
"A.	c #603C1A",
"B.	c #6D4622",
"C.	c #77502B",
"D.	c #694625",
"E.	c #744D29",
"F.	c #82582F",
"G.	c #5D3A1B",
"H.	c #AF8053",
"I.	c #A97C54",
"J.	c #9C7653",
"K.	c #B3875B",
"L.	c #BE8D5D",
"M.	c #9C6E44",
"N.	c #714B27",
"O.	c #83572D",
"P.	c #7B522B",
"Q.	c #875B31",
"R.	c #7D542C",
"S.	c #69401B",
"T.	c #613B19",
"U.	c #6C441F",
"V.	c #7F552E",
"W.	c #724A24",
"X.	c #694422",
"Y.	c #764D27",
"Z.	c #82572D",
"`.	c #5B3818",
" +	c #B48456",
".+	c #AD8056",
"++	c #9D7855",
"@+	c #C08F5F",
"#+	c #9B6D43",
"$+	c #64401E",
"%+	c #7F5329",
"&+	c #7B5129",
"*+	c #885B2F",
"=+	c #764C24",
"-+	c #6B421B",
";+	c #643D19",
">+	c #744A23",
",+	c #744B23",
"'+	c #70471F",
")+	c #67421F",
"!+	c #764D25",
"~+	c #83562A",
"{+	c #633E1B",
"]+	c #B38355",
"^+	c #B6875B",
"/+	c #9E7855",
"(+	c #C29060",
"_+	c #9E7045",
":+	c #633E1C",
"<+	c #7E5127",
"[+	c #7D5228",
"}+	c #885A2D",
"|+	c #71461E",
"1+	c #6E431C",
"2+	c #68401A",
"3+	c #70451D",
"4+	c #774D24",
"5+	c #87582B",
"6+	c #724922",
"7+	c #B28355",
"8+	c #C08F60",
"9+	c #B18559",
"0+	c #C18F5F",
"a+	c #A07247",
"b+	c #653F1C",
"c+	c #7F5227",
"d+	c #815429",
"e+	c #88592B",
"f+	c #74471D",
"g+	c #72461D",
"h+	c #6B411B",
"i+	c #825429",
"j+	c #663F1A",
"k+	c #764B22",
"l+	c #8B5B2D",
"m+	c #85572B",
"n+	c #B18153",
"o+	c #C79463",
"p+	c #A27A54",
"q+	c #A97E54",
"r+	c #A37448",
"s+	c #68401C",
"t+	c #805327",
"u+	c #8A5A2C",
"v+	c #75481E",
"w+	c #76481E",
"x+	c #72471F",
"y+	c #88582A",
"z+	c #77491E",
"A+	c #673F19",
"B+	c #754A21",
"C+	c #905E2E",
"D+	c #8C5C2D",
"E+	c #AA7B4E",
"F+	c #C2905F",
"G+	c #B18459",
"H+	c #AA7F54",
"I+	c #BD8B5B",
"J+	c #A27347",
"K+	c #6A421D",
"L+	c #845528",
"M+	c #895A2C",
"N+	c #92602F",
"O+	c #794A1F",
"P+	c #784A1E",
"Q+	c #7B4E23",
"R+	c #8A592A",
"S+	c #7B4C1F",
"T+	c #6E431B",
"U+	c #6F441C",
"V+	c #946130",
"W+	c #996C42",
"X+	c #BC8A5B",
"Y+	c #AB7F55",
"Z+	c #A47950",
"`+	c #A17145",
" @	c #6D431D",
".@	c #885829",
"+@	c #8D5C2E",
"@@	c #996431",
"#@	c #855426",
"$@	c #7D4D20",
"%@	c #7F5024",
"&@	c #8E5C2C",
"*@	c #7F4E20",
"=@	c #825122",
"-@	c #76491E",
";@	c #6F431A",
">@	c #915E2E",
",@	c #956130",
"'@	c #8B5F36",
")@	c #BA8858",
"!@	c #A2784F",
"~@	c #8C6540",
"{@	c #B88657",
"]@	c #9E6F43",
"^@	c #8C5B2B",
"/@	c #8F5D2E",
"(@	c #9A6532",
"_@	c #966230",
":@	c #825123",
"<@	c #805125",
"[@	c #925F2E",
"}@	c #804F21",
"|@	c #855323",
"1@	c #774A1F",
"2@	c #70441B",
"3@	c #835326",
"4@	c #966231",
"5@	c #885B32",
"6@	c #B18152",
"7@	c #A0754C",
"8@	c #825D3B",
"9@	c #986F47",
"0@	c #9E734A",
"a@	c #AC7F53",
"b@	c #B48558",
"c@	c #B8895C",
"d@	c #B9895C",
"e@	c #A0754D",
"f@	c #906741",
"g@	c #8C633D",
"h@	c #8A603A",
"i@	c #8B6038",
"j@	c #875C35",
"k@	c #855C35",
"l@	c #7A5532",
"m@	c #815934",
"n@	c #805329",
"o@	c #95683F",
"p@	c #9A6D44",
"q@	c #9C6F46",
"r@	c #9F7148",
"s@	c #A7794E",
"t@	c #B38457",
"u@	c #C89564",
"v@	c #C79564",
"w@	c #C29161",
"x@	c #BE8E5E",
"y@	c #B78759",
"z@	c #B08053",
"A@	c #AF7F51",
"B@	c #A87A4D",
"C@	c #87592F",
"D@	c #9D7248",
"E@	c #6A4726",
"F@	c #79522D",
"G@	c #7F5731",
"H@	c #815933",
"I@	c #835A35",
"J@	c #835B36",
"K@	c #845C37",
"L@	c #835B37",
"M@	c #8E6640",
"N@	c #A2784E",
"O@	c #A97D53",
"P@	c #A97D52",
"Q@	c #A77B51",
"R@	c #A67A4F",
"S@	c #A1754C",
"T@	c #9F734A",
"U@	c #976D45",
"V@	c #855F3C",
"  . + @ # $ % & * = = - * ; > , ' ) ! ~ ",
"{ ] ^ / ( _ : < [ } | 1 2 2 3 4 5 6 7 8 ",
"9 0 a b c d e f g h i j k ) l m n n o p ",
"q r s t u v w x y z A B C D u E F r G H ",
"H I J K L M N O P Q R S T U V W X Y Z ` ",
" ...+.@.#.$.%.&.*.=.-.;.>.,.'.).!.~.{.].",
"^./.(._.:.<.[.}.|.1.2.3.4.5.6.:.7.8.9.0.",
"a.d a b.c.d.e.f.g.h.i.j.k.l.m.c.n.o.p.q.",
"r.s.t.u.v.w.x.y.z.A.B.y.C.D.E.F.G.H.I.J.",
"K.L.M.N.O.P.Q.R.S.T.U.V.W.X.Y.Z.`. +.+++",
"K.@+#+$+%+&+*+=+-+;+>+,+'+)+!+~+{+]+^+/+",
"r.(+_+:+<+[+}+|+1+2+<+3+3+z.4+5+6+7+8+J.",
"9+0+a+b+c+d+e+f+g+h+i+f+f+j+k+l+m+n+o+p+",
"q+L.r+s+t+m+u+v+w+x+y+z+z+A+B+C+D+E+F+G+",
"H+I+J+K+L+M+N+O+P+Q+R+S+S+T+U+V+C+W+X+Y+",
"Z+I+`+ @.@+@@@#@$@%@&@*@=@-@;@>@,@'@)@!@",
"~@{@]@ @^@/@(@_@:@<@[@}@|@1@2@3@4@5@6@7@",
"8@9@0@! a@b@g c@c@c@d@3 e@f@g@h@i@j@k@l@",
"m@n@o@p@q@r@s@t@(+u@v@o+w@x@y@z@A@B@C@D@",
"E@F@G@H@I@J@K@K@L@M@N@O@P@Q@R@7@S@T@U@V@"};
