/* XPM */
static char * hand_xpm[] = {
"20 20 5 1",
" 	c #FFFFFE",
".	c #FEFEFE",
"+	c #FDFDFD",
"@	c #FFFFFF",
"#	c #000000",
"      .+.           ",
"      .#.           ",
"      @#@           ",
"      @#@           ",
"      @#@           ",
"      @#@@@         ",
"      @#@##@.@      ",
"      @#@##.#..+    ",
"      @#@##@#@##@   ",
" . @  @#@##@#@##@   ",
" .##..@#########@   ",
" .##############@   ",
"  @#############@   ",
"   +############@   ",
"   .############@   ",
"    .###########@   ",
"    .###########@   ",
"     @#########@.   ",
"      @@@@@@@@@     ",
"                    "
};
