/* XPM */
static char * little_plank_xpm[] = {
"95 10 493 2",
"  	c #FFFFFE",
". 	c #5B3B1F",
"+ 	c #714B28",
"@ 	c #724B29",
"# 	c #724C29",
"$ 	c #734D2A",
"% 	c #744E2A",
"& 	c #754E2B",
"* 	c #754F2C",
"= 	c #76502C",
"- 	c #77502D",
"; 	c #77512D",
"> 	c #78522E",
", 	c #77512E",
"' 	c #7E5B37",
") 	c #916A42",
"! 	c #926B43",
"~ 	c #936C44",
"{ 	c #946C44",
"] 	c #946D45",
"^ 	c #956E46",
"/ 	c #966E47",
"( 	c #966F47",
"_ 	c #977048",
": 	c #977148",
"< 	c #987149",
"[ 	c #997249",
"} 	c #9A734A",
"| 	c #9B734B",
"1 	c #9B744B",
"2 	c #9B744C",
"3 	c #9C744C",
"4 	c #9C754C",
"5 	c #9D754D",
"6 	c #9D744D",
"7 	c #9D744C",
"8 	c #9B734A",
"9 	c #9A724A",
"0 	c #997149",
"a 	c #987049",
"b 	c #815D3B",
"c 	c #755231",
"d 	c #7A5532",
"e 	c #7A5432",
"f 	c #7A5431",
"g 	c #795331",
"h 	c #785230",
"i 	c #775130",
"j 	c #77512F",
"k 	c #76502F",
"l 	c #76502E",
"m 	c #76502D",
"n 	c #754F2D",
"o 	c #744E2C",
"p 	c #734D2B",
"q 	c #724C2B",
"r 	c #724C2A",
"s 	c #714B2A",
"t 	c #704A29",
"u 	c #6F4A28",
"v 	c #6E4927",
"w 	c #6E4827",
"x 	c #6D4726",
"y 	c #6C4726",
"z 	c #6C4625",
"A 	c #6B4525",
"B 	c #6A4524",
"C 	c #694423",
"D 	c #694323",
"E 	c #624022",
"F 	c #785232",
"G 	c #845A38",
"H 	c #845A37",
"I 	c #825936",
"J 	c #754D29",
"K 	c #8D5E32",
"L 	c #8E5F33",
"M 	c #8F6034",
"N 	c #906035",
"O 	c #916136",
"P 	c #926236",
"Q 	c #936337",
"R 	c #936438",
"S 	c #946439",
"T 	c #956539",
"U 	c #936439",
"V 	c #996D42",
"W 	c #B28352",
"X 	c #B58554",
"Y 	c #B68655",
"Z 	c #B78756",
"` 	c #B88857",
" .	c #B98958",
"..	c #BA8A58",
"+.	c #BB8B59",
"@.	c #BC8C5A",
"#.	c #BC8D5B",
"$.	c #BD8E5C",
"%.	c #BE8E5D",
"&.	c #BE8F5D",
"*.	c #BF905E",
"=.	c #C0915F",
"-.	c #C09260",
";.	c #C19260",
">.	c #C19361",
",.	c #C29361",
"'.	c #C39462",
").	c #C39361",
"!.	c #C29261",
"~.	c #C29260",
"{.	c #C29160",
"].	c #C2915F",
"^.	c #C1915F",
"/.	c #C1905F",
"(.	c #C0905E",
"_.	c #C08F5E",
":.	c #BF8F5D",
"<.	c #BF8E5D",
"[.	c #BE8D5C",
"}.	c #BD8D5B",
"|.	c #BD8C5A",
"1.	c #BC8B5A",
"2.	c #B08253",
"3.	c #9E7247",
"4.	c #94673D",
"5.	c #97683E",
"6.	c #97683D",
"7.	c #96673D",
"8.	c #95663C",
"9.	c #95663B",
"0.	c #94653B",
"a.	c #93643A",
"b.	c #926439",
"c.	c #916438",
"d.	c #916338",
"e.	c #916237",
"f.	c #906137",
"g.	c #8F6036",
"h.	c #8E5F36",
"i.	c #8D5E35",
"j.	c #8D5D34",
"k.	c #8C5C33",
"l.	c #8B5C33",
"m.	c #8A5B32",
"n.	c #895A31",
"o.	c #885930",
"p.	c #875830",
"q.	c #86572F",
"r.	c #85562E",
"s.	c #82552D",
"t.	c #7F542E",
"u.	c #8C6039",
"v.	c #9F6D43",
"w.	c #A67146",
"x.	c #A57046",
"y.	c #A46F45",
"z.	c #895E3A",
"A.	c #754D28",
"B.	c #8D5D31",
"C.	c #8E5E32",
"D.	c #906034",
"E.	c #906134",
"F.	c #916135",
"G.	c #936237",
"H.	c #946437",
"I.	c #8F6238",
"J.	c #A07347",
"K.	c #B08150",
"L.	c #A77A4C",
"M.	c #A97C4D",
"N.	c #A97D4E",
"O.	c #AE8151",
"P.	c #B78957",
"Q.	c #B88A58",
"R.	c #BA8B58",
"S.	c #BA8C59",
"T.	c #BB8D5A",
"U.	c #BC8E5B",
"V.	c #BF905D",
"W.	c #BF915E",
"X.	c #C19360",
"Y.	c #C29461",
"Z.	c #C29562",
"`.	c #C39562",
" +	c #C29563",
".+	c #BE8E5C",
"++	c #BD8D5C",
"@+	c #BC8C5B",
"#+	c #BB8A59",
"$+	c #BA8958",
"%+	c #B48455",
"&+	c #A4774B",
"*+	c #966940",
"=+	c #92643A",
"-+	c #94653A",
";+	c #936539",
">+	c #926339",
",+	c #926338",
"'+	c #906237",
")+	c #8F6136",
"!+	c #8E5F35",
"~+	c #8D5E34",
"{+	c #8C5D33",
"]+	c #8B5B32",
"^+	c #8A5B31",
"/+	c #885A30",
"(+	c #87592F",
"_+	c #81552E",
":+	c #865A34",
"<+	c #95673E",
"[+	c #A47146",
"}+	c #A67247",
"|+	c #8C613C",
"1+	c #744B27",
"2+	c #8B5B30",
"3+	c #8C5C31",
"4+	c #8F5F33",
"5+	c #8E5F34",
"6+	c #93673D",
"7+	c #A97A4B",
"8+	c #B0804F",
"9+	c #B18150",
"0+	c #B28251",
"a+	c #B38352",
"b+	c #B48453",
"c+	c #B78856",
"d+	c #B88957",
"e+	c #B98A58",
"f+	c #BA8B59",
"g+	c #BB8C5A",
"h+	c #BE8F5C",
"i+	c #BF915F",
"j+	c #C09160",
"k+	c #C0905F",
"l+	c #BB8B5A",
"m+	c #BA8A59",
"n+	c #B98857",
"o+	c #B88757",
"p+	c #B78656",
"q+	c #B78555",
"r+	c #B58454",
"s+	c #AC7C4F",
"t+	c #9C6F45",
"u+	c #91643B",
"v+	c #8D6036",
"w+	c #906136",
"x+	c #8E6035",
"y+	c #8C5D34",
"z+	c #8B5C32",
"A+	c #895A30",
"B+	c #84572E",
"C+	c #82562F",
"D+	c #8A5D37",
"E+	c #95663E",
"F+	c #A27045",
"G+	c #A77347",
"H+	c #A37046",
"I+	c #996941",
"J+	c #A16E44",
"K+	c #714925",
"L+	c #88592E",
"M+	c #89592F",
"N+	c #8A5A30",
"O+	c #8B5C31",
"P+	c #885A31",
"Q+	c #8F633A",
"R+	c #A27347",
"S+	c #AD7C4D",
"T+	c #AD7D4D",
"U+	c #AE7E4E",
"V+	c #AF7F4F",
"W+	c #B08050",
"X+	c #AE7E4F",
"Y+	c #A6784B",
"Z+	c #AB7C4E",
"`+	c #B88856",
" @	c #BD8C5B",
".@	c #BA8858",
"+@	c #B88656",
"@@	c #B68454",
"#@	c #B58353",
"$@	c #B48253",
"%@	c #B48152",
"&@	c #B38051",
"*@	c #B27F51",
"=@	c #B07E4F",
"-@	c #A7774A",
";@	c #9B6D43",
">@	c #895D35",
",@	c #875A32",
"'@	c #875931",
")@	c #865830",
"!@	c #855830",
"~@	c #845830",
"{@	c #845932",
"]@	c #875B34",
"^@	c #8D6039",
"/@	c #93653D",
"(@	c #9D6C43",
"_@	c #A57247",
":@	c #80532B",
"<@	c #83572F",
"[@	c #A47347",
"}@	c #AA784A",
"|@	c #AB784B",
"1@	c #AB794B",
"2@	c #AB7A4B",
"3@	c #AC7A4C",
"4@	c #AD7B4D",
"5@	c #AE7C4E",
"6@	c #AF7D4F",
"7@	c #AC7C4E",
"8@	c #A97A4D",
"9@	c #A4764A",
"0@	c #9F7247",
"a@	c #9D7045",
"b@	c #986B41",
"c@	c #94683E",
"d@	c #91653C",
"e@	c #90643B",
"f@	c #91653B",
"g@	c #92663C",
"h@	c #93673E",
"i@	c #956940",
"j@	c #996D43",
"k@	c #9B6F44",
"l@	c #A2754A",
"m@	c #A97B4F",
"n@	c #AC7E50",
"o@	c #B38354",
"p@	c #B58455",
"q@	c #B98757",
"r@	c #B98656",
"s@	c #B88555",
"t@	c #B78455",
"u@	c #B78454",
"v@	c #B68354",
"w@	c #B68353",
"x@	c #B58253",
"y@	c #B17E50",
"z@	c #B17E4F",
"A@	c #B07D4F",
"B@	c #AF7C4E",
"C@	c #AE7B4D",
"D@	c #AD7A4C",
"E@	c #AC794C",
"F@	c #A9764A",
"G@	c #A27146",
"H@	c #A37146",
"I@	c #A26F45",
"J@	c #9A6A42",
"K@	c #9C6B42",
"L@	c #A26E44",
"M@	c #91623C",
"N@	c #6F4A2A",
"O@	c #A67347",
"P@	c #A87448",
"Q@	c #A87548",
"R@	c #A97549",
"S@	c #A97649",
"T@	c #A87649",
"U@	c #9C6D43",
"V@	c #94673E",
"W@	c #8E6239",
"X@	c #885C34",
"Y@	c #875A31",
"Z@	c #885B32",
"`@	c #8B5D33",
" #	c #8F6035",
".#	c #8C5E36",
"+#	c #8B5F36",
"@#	c #8D6038",
"##	c #90643C",
"$#	c #95683F",
"%#	c #9A6D43",
"&#	c #9E7046",
"*#	c #A4754A",
"=#	c #AB7A4D",
"-#	c #B07D50",
";#	c #B37F51",
">#	c #B27E50",
",#	c #B17D4F",
"'#	c #B07C4F",
")#	c #B07B4E",
"!#	c #AF7B4E",
"~#	c #AE7A4D",
"{#	c #AE794C",
"]#	c #AD784C",
"^#	c #AC774B",
"/#	c #AB774A",
"(#	c #AA764A",
"_#	c #A16D44",
":#	c #986840",
"<#	c #976840",
"[#	c #976740",
"}#	c #9A6941",
"|#	c #8E603A",
"1#	c #7C522C",
"2#	c #7D5029",
"3#	c #6D4623",
"4#	c #8B5E3A",
"5#	c #A57146",
"6#	c #A37045",
"7#	c #8F623A",
"8#	c #875C35",
"9#	c #815630",
"0#	c #80542D",
"a#	c #84562E",
"b#	c #86582F",
"c#	c #875930",
"d#	c #885931",
"e#	c #895A32",
"f#	c #895B32",
"g#	c #8A5C33",
"h#	c #8B5C34",
"i#	c #8B5D34",
"j#	c #895B33",
"k#	c #855831",
"l#	c #845832",
"m#	c #8C5F39",
"n#	c #92643D",
"o#	c #986941",
"p#	c #9F6F45",
"q#	c #A77449",
"r#	c #AC764A",
"s#	c #AB754A",
"t#	c #AA7549",
"u#	c #A97449",
"v#	c #A97348",
"w#	c #A87248",
"x#	c #A77247",
"y#	c #7C512C",
"z#	c #7D5129",
"A#	c #7E5129",
"B#	c #895D39",
"C#	c #986740",
"D#	c #8C5E38",
"E#	c #815631",
"F#	c #7A502A",
"G#	c #7C5029",
"H#	c #7F522A",
"I#	c #80522B",
"J#	c #80532C",
"K#	c #81532C",
"L#	c #81542C",
"M#	c #82542D",
"N#	c #82552E",
"O#	c #83552E",
"P#	c #83562E",
"Q#	c #84562F",
"R#	c #85572F",
"S#	c #855730",
"T#	c #865831",
"U#	c #875831",
"V#	c #865730",
"W#	c #85562F",
"X#	c #885B36",
"Y#	c #90613B",
"Z#	c #A36F45",
"`#	c #A77147",
" $	c #A67046",
".$	c #A67045",
"+$	c #95653E",
"@$	c #7D532D",
"#$	c #694321",
"$$	c #69472B",
"%$	c #835937",
"&$	c #7D5534",
"*$	c #6F4B2D",
"=$	c #5F3F22",
"-$	c #603E1E",
";$	c #654020",
">$	c #654121",
",$	c #664121",
"'$	c #664122",
")$	c #674222",
"!$	c #674223",
"~$	c #674323",
"{$	c #684323",
"]$	c #684324",
"^$	c #694424",
"/$	c #6A4424",
"($	c #6A4425",
"_$	c #6A4525",
":$	c #684424",
"<$	c #664222",
"[$	c #613F22",
"}$	c #6B482B",
"|$	c #7E5534",
"1$	c #825836",
"2$	c #724D2E",
"3$	c #613E1F",
"4$	c #64401F",
". + @ # $ % & * = - ; > , ' ) ! ~ { ] ^ / ( _ : < [ [ } } | 1 2 3 3 4 4 5 5 5 5 5 5 5 6 7 3 3 3 1 | 8 9 9 0 0 a / b c d e f g h h i j k l m n o o p q r s t u v w x y z A B C D E F G H H I   ",
"J K L M N O P Q R S T U V W X Y Z `  ...+.@.#.$.%.&.*.*.=.-.;.>.,.,.,.'.'.'.'.'.'.).).,.!.~.{.].^./.(._.:.<.[.}.|.1.2.3.4.5.6.7.8.9.0.a.b.c.d.e.f.g.h.i.j.k.l.m.n.o.p.q.r.s.t.u.v.w.w.x.x.y.z.",
"A.B.C.L D.E.F.P G.H.I.J.K.L.M.N.O.P.Q.R.S.T.U.$.&.V.W.=.-.X.Y.Y.Z.Z.`. +`.`.`.'.Y.Y.,.,.,.;.;.^./.(.V.:.%..+++@+@.#+#+$+%+&+*+=+9.-+;+>+,+e.'+)+g.!+~+j.{+]+^+n./+(+q._+:+<+[+}+}+w.w.w.x.x.|+",
"1+2+3+B.C.4+M E.5+6+7+8+9+0+a+b+X Y Z c+d+e+f+g+T.#.$.h+&.:.*.*.W.i+=.=.=.=.j+=.=.=.=.k+(.*.:.:.:..+.+++}.@.l+#+m+$+n+o+p+q+r+s+t+u+v+'+w+)+x+!+~+y+k.z+^+A+/+B+C+D+E+F+G+G+}+H+I+J+w.x.x.y.|+",
"K+L+M+N+2+O+P+Q+R+S+S+T+U+V+W+X+Y+Z+b+r+X Y Z `+`  .$+m+m+f+l+g+@.#.}.}.}.}.}.}.++}.}.}. @ @@+1.1.+.#+#+$+.@n+o++@q+q+@@#@$@%@&@*@=@-@;@u+>@,@'@)@!@~@{@]@^@/@(@_@G+_@}+}+w.w.w.x.x.x.y.y.y.|+",
"h _+:@<@>@<+[@}@|@1@1@1@2@3@4@5@6@=@=@7@8@9@0@a@b@c@d@u+e@u+f@d@d@g@h@i@j@k@3.l@&+m@n@o@p@q@q@q@r@r@+@s@t@u@v@w@x@%@%@&@*@y@z@A@B@C@D@E@|@F@[@G@F+F+H@}+G+}+}+}+w.I@J@K@x.x.y.y.y.y.y.y.L@M@N@",
"|+_@H@O@P@P@Q@Q@R@R@S@S@S@T@[@U@V@W@X@Y@Z@`@~+!+!+!+ #g.g.g.f.f.f.f.f.f.f.f.'+'+'+f.v+.#+#@###$#%#&#*#=#-#;#;#>#>#,#'#)#!#~#{#]#^#/#(#R@P@G+}+}+w.w.w.x._#:#<#<#[#}#y.y.y.y.y.y.y.y._#|#1#2#3#",
"4#x.x.5#5#w.w.w.}+6#I+7#8#9#0#a#q.b#p.c#d#P+P+e#e#f#f#m.g#g#g#h#h#h#h#i#i#i#i#i#i#i#i#i#i#h#h#g#g#g#j#k#l#:+m#n#o#p#q#r#r#s#t#u#v#w#x#w.x.y.y.y.y.y.y.y.y.y.y.y.y.y.y.y.y.y.y.y.L@|#y#z#A#A#3#",
"B#y.y.y.y._#C#D#E#F#G#H#I#I#J#K#L#M#M#N#O#P#P#Q#Q#R#R#R#S#!@)@)@)@T#T#U#U#U#U#U#U#U#U#U#U#U#U#U#T#T#)@)@V#S#S#R#W#O#0#9#X#Y#C#Z#`# $.$y.y.y.y.y.y.y.y.y.y.y.y.y.y.y.y.y.y.y.y.+$@$2#A#A#A#A##$",
"$$%$%$&$*$=$-$;$;$;$;$;$;$>$>$,$'$'$)$!$!$~${$]$]$]$^$^$^$^$/$/$($($_$_$_$_$_$_$_$_$_$_$_$_$_$_$_$_$($($/$/$^$^$^$^$:$]$]${$<$[$}$|$1$%$%$%$%$%$%$%$%$%$%$%$%$%$%$%$%$%$%$%$2$3$;$;$;$;$;$4$  "};
