/* XPM */
static char * mouse_xpm[] = {
"50 42 256 2",
"  	c #FFFFFE",
". 	c #47704C",
"+ 	c #191E2C",
"@ 	c #2A2B32",
"# 	c #332D2C",
"$ 	c #362D2A",
"% 	c #362D2A",
"& 	c #2F2E33",
"* 	c #191F2C",
"= 	c #161B29",
"- 	c #2E2E33",
"; 	c #413120",
"> 	c #43311F",
", 	c #2C2D33",
"' 	c #2B2C33",
") 	c #45311E",
"! 	c #46321C",
"~ 	c #1D222D",
"{ 	c #1C212E",
"] 	c #322D2E",
"^ 	c #46321E",
"/ 	c #3E3023",
"( 	c #302E33",
"_ 	c #171D2C",
": 	c #292A33",
"< 	c #372D28",
"[ 	c #262832",
"} 	c #111725",
"| 	c #2F2E33",
"1 	c #312D2F",
"2 	c #1B202D",
"3 	c #342F30",
"4 	c #141B2B",
"5 	c #232630",
"6 	c #3B2F25",
"7 	c #313035",
"8 	c #332D2D",
"9 	c #1F232E",
"0 	c #312E31",
"a 	c #2D2D34",
"b 	c #1C212D",
"c 	c #262831",
"d 	c #3A3536",
"e 	c #3C3533",
"f 	c #443933",
"g 	c #3C3635",
"h 	c #312F33",
"i 	c #3F3B3C",
"j 	c #463B33",
"k 	c #614A34",
"l 	c #694E35",
"m 	c #725234",
"n 	c #755434",
"o 	c #584535",
"p 	c #342D2B",
"q 	c #21252F",
"r 	c #2C2C33",
"s 	c #4D3F34",
"t 	c #6F5235",
"u 	c #765535",
"v 	c #775636",
"w 	c #534234",
"x 	c #5D4735",
"y 	c #21242F",
"z 	c #272932",
"A 	c #6B5035",
"B 	c #735334",
"C 	c #252731",
"D 	c #322F31",
"E 	c #4C3E34",
"F 	c #654D34",
"G 	c #403734",
"H 	c #2D2E34",
"I 	c #7A5939",
"J 	c #7C5D3E",
"K 	c #826242",
"L 	c #876647",
"M 	c #927354",
"N 	c #A18161",
"O 	c #AA8A6B",
"P 	c #B19174",
"Q 	c #B49476",
"R 	c #B69677",
"S 	c #AF8E6E",
"T 	c #A68667",
"U 	c #997A5B",
"V 	c #BA997A",
"W 	c #BB9A7A",
"X 	c #8A6C4D",
"Y 	c #302E32",
"Z 	c #2C2C32",
"` 	c #B99879",
" .	c #3D3025",
"..	c #433934",
"+.	c #22242E",
"@.	c #1B202C",
"#.	c #45311C",
"$.	c #47331E",
"%.	c #4F3822",
"&.	c #5E4329",
"*.	c #49331F",
"=.	c #6F5B3F",
"-.	c #523A23",
";.	c #694C2F",
">.	c #897563",
",.	c #5B4128",
"'.	c #58504A",
").	c #543D24",
"!.	c #6E5032",
"~.	c #4B351F",
"{.	c #B99777",
"].	c #524A46",
"^.	c #573E26",
"/.	c #826F5F",
"(.	c #4D3E33",
"_.	c #0B0C13",
":.	c #0D0E15",
"<.	c #423E40",
"[.	c #A1876F",
"}.	c #0B0C13",
"|.	c #635851",
"1.	c #64492C",
"2.	c #62462B",
"3.	c #513E28",
"4.	c #0B0C13",
"5.	c #0B0C13",
"6.	c #7B6A5C",
"7.	c #6B4E31",
"8.	c #927B66",
"9.	c #BC9A7B",
"0.	c #4D3721",
"a.	c #715133",
"b.	c #5C452F",
"c.	c #0B0C13",
"d.	c #574E4A",
"e.	c #BE9D7C",
"f.	c #C3A282",
"g.	c #C7A483",
"h.	c #CBA783",
"i.	c #C29F7E",
"j.	c #685A51",
"k.	c #D0AC88",
"l.	c #DDB790",
"m.	c #E4BD94",
"n.	c #E9C197",
"o.	c #EBC399",
"p.	c #ECC399",
"q.	c #EBC298",
"r.	c #E7BF96",
"s.	c #E1BA93",
"t.	c #D6B18C",
"u.	c #786759",
"v.	c #D9B48E",
"w.	c #EDC49A",
"x.	c #D3AF8A",
"y.	c #B99A7A",
"z.	c #39373B",
"A.	c #DFB891",
"B.	c #EEC59A",
"C.	c #3F3B3D",
"D.	c #534B48",
"E.	c #77675B",
"F.	c #887564",
"G.	c #937E6A",
"H.	c #A68D75",
"I.	c #B0957A",
"J.	c #B5997D",
"K.	c #AB9177",
"L.	c #8D7967",
"M.	c #806E60",
"N.	c #60554F",
"O.	c #504946",
"P.	c #9A826A",
"Q.	c #6D6056",
"R.	c #EFC69B",
"S.	c #C8A887",
"T.	c #756559",
"U.	c #3E3B3D",
"V.	c #433F40",
"W.	c #60554E",
"X.	c #5D534D",
"Y.	c #AA8D72",
"Z.	c #CDA986",
"`.	c #56432D",
" +	c #655951",
".+	c #4D4644",
"++	c #DBB58F",
"@+	c #454040",
"#+	c #674B2D",
"$+	c #4C4543",
"%+	c #564D49",
"&+	c #99836D",
"*+	c #827260",
"=+	c #BD9F81",
"-+	c #3B383C",
";+	c #BA9C7F",
">+	c #716256",
",+	c #655A4F",
"'+	c #C19C77",
")+	c #B5AB87",
"!+	c #C6B6A3",
"~+	c #D1C3B1",
"{+	c #CABBA9",
"]+	c #B5A999",
"^+	c #D4C9B8",
"/+	c #FDF7ED",
"(+	c #FBF5EB",
"_+	c #F7F1E7",
":+	c #E6DDD0",
"<+	c #3A2B11",
"[+	c #241801",
"}+	c #EFE8DC",
"|+	c #33250A",
"1+	c #A09585",
"2+	c #463214",
"3+	c #3F3319",
"4+	c #DED6C9",
"5+	c #706154",
"6+	c #271A02",
"7+	c #CDC5B7",
"8+	c #948979",
"9+	c #2C1F05",
"0+	c #D4CCBF",
"a+	c #C0B7A9",
"b+	c #8A826D",
"c+	c #7B695B",
"d+	c #4A4443",
"e+	c #63533B",
"f+	c #CABEAE",
"g+	c #442F1B",
"h+	c #7F654B",
"i+	c #8D8358",
"j+	c #C2BD84",
"k+	c #B5B178",
"l+	c #9D956C",
"m+	c #847752",
"n+	c #766945",
"o+	c #C5C285",
"p+	c #C9C888",
"q+	c #CAC989",
"r+	c #CBCA8A",
"s+	c #AAA36E",
"t+	c #958A5E",
"u+	c #C8C787",
"v+	c #A39C6D",
"w+	c #C6C486",
"x+	c #C9C699",
"y+	c #D7D6A1",
"z+	c #E8E8B4",
"A+	c #EAEAB6",
"B+	c #ECEDB8",
"C+	c #AAA17A",
"D+	c #BFB683",
"E+	c #E0E0AC",
"F+	c #D1D094",
"G+	c #BDA87E",
"                                                                          ;                         ",
"                                                                        ; ^                         ",
"                                                                        ; ^ >                       ",
"                                                  l t u t               ; ^ ^                       ",
"                                              F J U U X v v A           ; ^ ^ ;                     ",
"                                            =.N ` V V V N v v t         ; ^ ^ >                     ",
"                                          h+P V V V V V V U v v A       ; ^ ^ ^                     ",
"                                          P V V V V V ` Q R K v v F     ; -.^.^                     ",
"                                        [.V V V V V ` R V V N v v B     / ).7.^                     ",
"                                        Y.V g.v.v.h.Q V V V R I v v l     2.a.^ *.A                 ",
"              t.l.s.s.l.t.h.            P Z.p.w.w.r.s.i.V V V X v v u     a.m ^ 2.t                 ",
"          s.m.t.k.k.x.++n.w.n.          R q.w.w.w.r.w.n.f.V V M v v v l t v !.^.n v u m F           ",
"      x.r.S.              x.w.s.        k.w.w.w.p.r.w.w.n.f.V O v v v B v v v v v v v v v F         ",
"    t.m.                    l.w.        v.w.w.w.q.n.w.w.w.r.e.V M v v u u ,.,.!.v v v v v v         ",
"  h.s.                      x.w.x.      k.w.w.w.p.n.w.w.w.w.s.9.` X v v #+!.v n v v v v v v m       ",
"  v.                        x.w.t.        q.w.w.w.r.w.w.w.w.w.v.O v v v u v v v v v v v v v v       ",
"k.                          l.w.x.        x.w.w.w.r.w.w.w.w.w.w.M v v v v I v v v v v v v v v A     ",
"W                           p.w.            m.w.w.n.o.w.w.w.w.n.U v v v &.4+}+=.v v v v v v v t     ",
"                          t.w.t.              n.w.w.r.w.w.w.w.w.g.v v !.6+b+1+<+u v v v v v v u     ",
"                          o.s.                  m.w.n.w.w.w.w.w.g.v v ;.|+6+6+6+n v v v v v v v l   ",
"                        m.n.                      t.o.w.w.w.w.p.i.v v h+4+6 Q.1+v v v v v v v v u F ",
"                      l.w.Z.                          k.g.e.O =.^ ;.v v G.x F.h+v v v v v v v U i.U ",
"                    k.w.l.                            F !.m !.2.~.*.!.v v v v v v v v v v v v Z.w.X ",
"                    q.p.                    l A t t u v v v v v B ).*.#+v v v v v v v v v v m ;.S 3.",
"                  A.w.++              l B v v v v v v v v v v v v u ).^ ).;.n v v v v v v !.0.^ )   ",
"                Z.w.w.Z.            m v v v v v v v v v v v v v v v n 0.^ ^ *.).,.2.2.2.,.$.^ ^ /   ",
"                s.w.w.            t v v v v v v v v v v v v v v v v v 7.^ ^ ^ ^ ^ ^ 8+^ ^ ^ )  .    ",
"              [.p.w.w.            v v v v v v v v B n v v v v v v v v v ,.^ ^ ^ ^ M.1+^ ^ ;         ",
"              P w.w.w.          ;.v v v v v v v v v u B v v v v v v v v n b.s+l+w ; ;               ",
"              P p.w.w.          &.v v v v v v v v v v v m v v v u v v v v m+u+m+                    ",
"              P r.w.w.k.        ).v v v v v v v v v v v 1.n u u ;.v v v v I v+^ ;                   ",
"              Y.t.w.w.++        *.u v v v v v v v v v v &.h+j+x+=.n v v v v k ^ )                   ",
"              Y.i.n.w.p.=+      ^ ;.v v v v v v v v v v ).l+A+A+y+#+v v v v 2.^ ^ /                 ",
"                ` h.q.w.p.++x.v.k -.u v v v v v v v v n *.b+A+A+z+n+v v v v !.^ ^ >                 ",
"                Y.V i.A.p.w.w.r.M ^ 2.v v v v v v v v 2.^ l+A+A+A+C+#+v v v v -.^ )                 ",
"                  P V V i.h.f.W S 0.^ ,.B v v v v v #+$.^ l+F+y+F+o+k B v v v 1.^ ^                 ",
"                    P V V V V V V U $.^ $.).,.,.,.-.^ ^ $.k+p+p+p+j+e+^.u v v B *.^ >               ",
"                      [.P V V ` P Y.e+*.^ ^ ^ ^ ^ ^ ^ ^ i+p+p+p+j+Q 8./ ^.n v v 1.^ ^ >             ",
"                                      S h+3.^ ^ ^ ^ 3.t+o+w+j+G+V V `   ; %.!.u u 2.^ ^             ",
"                                      P V R O N N {.++s.m.e.              / ) ).2.m                 ",
"                                          [.Q V V Z.o.q.s.m.=+                  /                   ",
"                                                [.Y.P P [.                                          "};
